<?xml version="1.0" encoding="utf-8"?>
<!-- Generator: Adobe Illustrator 23.0.1, SVG Export Plug-In . SVG Version: 6.00 Build 0)  -->
<svg version="1.1" id="Layer_1" xmlns="http://www.w3.org/2000/svg" xmlns:xlink="http://www.w3.org/1999/xlink" x="0px" y="0px"
	 viewBox="0 0 447.2 134.9" style="enable-background:new 0 0 447.2 134.9;" xml:space="preserve">
<style type="text/css">
	.st0{fill:#FFFFFF;}
	.st1{fill:#00BDFF;}
	.st2{opacity:0.3;fill:#006DC6;}
	.st3{fill:#00FFFF;}
	.st4{fill:url(#SVGID_1_);}
	.st5{fill:url(#SVGID_2_);}
	.st6{fill:url(#SVGID_3_);}
	.st7{fill:url(#SVGID_4_);}
	.st8{fill:url(#SVGID_5_);}
	.st9{fill:url(#SVGID_6_);}
	.st10{fill:url(#SVGID_7_);}
	.st11{fill:url(#SVGID_8_);}
	.st12{fill:url(#SVGID_9_);}
	.st13{fill:url(#SVGID_10_);}
	.st14{fill:url(#SVGID_11_);}
	.st15{fill:url(#SVGID_12_);}
	.st16{fill:url(#SVGID_13_);}
	.st17{fill:url(#SVGID_14_);}
	.st18{fill:url(#SVGID_15_);}
	.st19{fill:url(#SVGID_16_);}
	.st20{fill:url(#SVGID_17_);}
	.st21{fill:url(#SVGID_18_);}
	.st22{fill:url(#SVGID_19_);}
	.st23{fill:url(#SVGID_20_);}
	.st24{fill:url(#SVGID_21_);}
	.st25{fill:url(#SVGID_22_);}
	.st26{fill:url(#SVGID_23_);}
	.st27{fill:url(#SVGID_24_);}
	.st28{fill:url(#SVGID_25_);}
	.st29{fill:#00293F;}
	.st30{fill:url(#SVGID_26_);}
	.st31{fill:url(#SVGID_27_);}
	.st32{fill:url(#SVGID_28_);}
	.st33{fill:url(#SVGID_29_);}
	.st34{fill:url(#SVGID_30_);}
	.st35{fill:url(#SVGID_31_);}
	.st36{fill:url(#SVGID_32_);}
	.st37{fill:url(#SVGID_33_);}
	.st38{fill:url(#SVGID_34_);}
	.st39{fill:url(#SVGID_35_);}
	.st40{fill:url(#SVGID_36_);}
	.st41{fill:url(#SVGID_37_);}
	.st42{fill:url(#SVGID_38_);}
	.st43{fill:url(#SVGID_39_);}
	.st44{fill:url(#SVGID_40_);}
	.st45{fill:url(#SVGID_41_);}
	.st46{fill:url(#SVGID_42_);}
	.st47{fill:url(#SVGID_43_);}
	.st48{fill:url(#SVGID_44_);}
	.st49{fill:url(#SVGID_45_);}
	.st50{fill:url(#SVGID_46_);}
	.st51{fill:url(#SVGID_47_);}
	.st52{fill:url(#SVGID_48_);}
	.st53{fill:url(#SVGID_49_);}
	.st54{fill:url(#SVGID_50_);}
	.st55{fill:url(#SVGID_51_);}
	.st56{fill:url(#SVGID_52_);}
	.st57{fill:url(#SVGID_53_);}
	.st58{fill:url(#SVGID_54_);}
	.st59{fill:url(#SVGID_55_);}
	.st60{fill:url(#SVGID_56_);}
	.st61{fill:url(#SVGID_57_);}
	.st62{fill:url(#SVGID_58_);}
	.st63{fill:url(#SVGID_59_);}
	.st64{fill:url(#SVGID_60_);}
	.st65{fill:url(#SVGID_61_);}
	.st66{fill:url(#SVGID_62_);}
	.st67{fill:url(#SVGID_63_);}
	.st68{fill:url(#SVGID_64_);}
</style>
<g>
	<path class="st0" d="M435.7,12.8h11.5v92.5h-11.5V93.9c-5.7,8.7-14.1,13.1-25,13.1c-9.3,0-17.1-3.4-23.7-10.1
		c-6.5-6.7-9.8-15-9.8-24.6s3.3-17.9,9.8-24.7c6.5-6.7,14.4-10.1,23.7-10.1c10.9,0,19.3,4.4,25,13.1V12.8z M412.2,95.9
		c6.7,0,12.3-2.3,16.8-6.8c4.5-4.5,6.7-10.2,6.7-16.9c0-6.7-2.2-12.3-6.7-16.9s-10.1-6.8-16.8-6.8c-6.6,0-12.2,2.3-16.7,6.8
		c-4.5,4.5-6.7,10.2-6.7,16.9c0,6.7,2.2,12.3,6.7,16.9C400,93.7,405.6,95.9,412.2,95.9z"/>
	<path class="st0" d="M379,103.1c-2.8-2.9-5.1-6.1-7-9.4h-32.2V64.3h27.5c0.7-4.1,1.9-7.9,3.6-11.5h-31.2V24.4h42.3V12.8h-54.6v92.5
		h53.8C380.5,104.6,379.7,103.9,379,103.1z"/>
	<g>
		<g>
			<g>
				<path class="st1" d="M34.4,76.5c-5,0-9.1-4.1-9.1-9.1s4.1-9.1,9.1-9.1c13,0,23.5-10.6,23.5-23.5v-9.3C57.9,11.4,69.4,0,83.4,0
					h8.1c5,0,9.1,4.1,9.1,9.1s-4.1,9.1-9.1,9.1h-8.1c-4,0-7.3,3.3-7.3,7.3v9.3C76.1,57.8,57.4,76.5,34.4,76.5z"/>
			</g>
			<path class="st2" d="M34.4,76.5c12.6,0,23.9-5.6,31.6-14.5c-6-4.7-12.5-7.1-17.7-8.2c-3.9,2.8-8.7,4.5-13.8,4.5
				c-5,0-9.1,4.1-9.1,9.1S29.4,76.5,34.4,76.5z"/>
			<g>
				<path class="st3" d="M91.6,134.9h-8.1c-14.1,0-25.5-11.4-25.5-25.5v-9.3c0-13-10.6-23.5-23.5-23.5c-5,0-9.1-4.1-9.1-9.1
					s4.1-9.1,9.1-9.1c23,0,41.7,18.7,41.7,41.7v9.3c0,4,3.3,7.3,7.3,7.3h8.1c5,0,9.1,4.1,9.1,9.1S96.6,134.9,91.6,134.9z"/>
			</g>
			<g>
				<path class="st0" d="M9.1,134.9c-5,0-9.1-4.1-9.1-9.1V9.1C0,4.1,4.1,0,9.1,0s9.1,4.1,9.1,9.1v116.7
					C18.2,130.8,14.1,134.9,9.1,134.9z"/>
			</g>
			<radialGradient id="SVGID_1_" cx="67.8323" cy="53.6825" r="61.5659" gradientUnits="userSpaceOnUse">
				<stop  offset="0" style="stop-color:#0081FF"/>
				<stop  offset="1" style="stop-color:#00FFFF;stop-opacity:0"/>
			</radialGradient>
			<path class="st4" d="M25.3,67.4c0,5,4.1,9.1,9.1,9.1c13,0,23.5,10.6,23.5,23.5c0,0-0.2-36.9-23.5-41.7
				C29.4,58.4,25.3,62.4,25.3,67.4z"/>
			<radialGradient id="SVGID_2_" cx="51.7791" cy="125.9215" r="56.0658" gradientUnits="userSpaceOnUse">
				<stop  offset="0" style="stop-color:#0081FF"/>
				<stop  offset="1" style="stop-color:#00FFFF;stop-opacity:0"/>
			</radialGradient>
			<path class="st5" d="M100.6,125.8c0-5-4.1-9.1-9.1-9.1h-8.1c-4,0-7.3-3.3-7.3-7.3c0,0-3.8,24.4,15.5,25.5
				C96.6,134.9,100.6,130.8,100.6,125.8z"/>
			<radialGradient id="SVGID_3_" cx="61.7337" cy="-5.9264" r="54.0114" gradientUnits="userSpaceOnUse">
				<stop  offset="0" style="stop-color:#0043A7"/>
				<stop  offset="1" style="stop-color:#00BDFF;stop-opacity:0"/>
			</radialGradient>
			<path class="st6" d="M100.6,9.1c0,5-4.1,9.1-9.1,9.1h-8.1c-4,0-7.3,3.3-7.3,7.3c0,0-3.8-24.4,15.5-25.5
				C96.6,0,100.6,4.1,100.6,9.1z"/>
		</g>
	</g>
	<path class="st0" d="M207.8,37.4c8.9,0,16.5,3.4,22.8,10.1c6.3,6.7,9.5,15,9.5,24.8c0,9.8-3.2,18-9.5,24.8
		c-6.3,6.7-13.9,10.1-22.8,10.1c-9.3,0-16.4-3.2-21.4-9.6v7.8h-17.1V12.8h17.1V47C191.4,40.6,198.6,37.4,207.8,37.4z M191.6,85.7
		c3.4,3.5,7.8,5.2,13.1,5.2c5.3,0,9.7-1.7,13.2-5.2c3.5-3.5,5.2-8,5.2-13.4c0-5.5-1.7-9.9-5.2-13.4c-3.5-3.5-7.9-5.2-13.2-5.2
		c-5.3,0-9.6,1.7-13.1,5.2c-3.4,3.5-5.2,8-5.2,13.4C186.4,77.7,188.1,82.2,191.6,85.7z"/>
	<path class="st0" d="M266.5,79.3c2.3,8.3,8.5,12.4,18.6,12.4c6.5,0,11.5-2.2,14.8-6.6l13.7,7.9c-6.5,9.4-16.1,14.1-28.8,14.1
		c-10.9,0-19.7-3.3-26.3-9.9c-6.6-6.6-9.9-14.9-9.9-25c0-10,3.3-18.3,9.8-24.9c6.5-6.7,14.9-10,25.1-10c9.7,0,17.7,3.3,24,10
		c6.3,6.7,9.4,15,9.4,24.8c0,2.2-0.2,4.5-0.7,7H266.5z M266.2,66.1h33.7c-1-4.5-3-7.8-6-10c-3-2.2-6.5-3.3-10.4-3.3
		c-4.6,0-8.4,1.2-11.4,3.5S267.2,61.8,266.2,66.1z"/>
	<radialGradient id="SVGID_4_" cx="-44.6182" cy="24.1731" r="127.3428" gradientUnits="userSpaceOnUse">
		<stop  offset="0.1587" style="stop-color:#4D4D4D"/>
		<stop  offset="1" style="stop-color:#FFFFFF;stop-opacity:0"/>
	</radialGradient>
	<path class="st7" d="M9.1,134.9c5,0,9.1-4.1,9.1-9.1V27.2C18.2,72.3,0,48,0,103v22.8C0,130.8,4.1,134.9,9.1,134.9z"/>
	<path class="st0" d="M139.1,39.2v37.1c0,7.6-6.2,13.8-13.8,13.8h0c-7.6,0-13.8-6.2-13.8-13.8V39.2h-17v37.1
		c0,17,13.8,30.9,30.9,30.9h0c17,0,30.9-13.8,30.9-30.9V39.2H139.1z"/>
	<radialGradient id="SVGID_5_" cx="73.9702" cy="111.5996" r="96.776" gradientUnits="userSpaceOnUse">
		<stop  offset="0.1587" style="stop-color:#4D4D4D"/>
		<stop  offset="1" style="stop-color:#FFFFFF;stop-opacity:0"/>
	</radialGradient>
	<path class="st8" d="M156.2,39.2v37.1c0,12.6-7.6,23.5-18.5,28.3c-3.2,1.4-6.8,2.1-10.2,1.5c-17.4-2.9-16-29.8-16-29.8
		c0,3.8,1.5,7.3,4,9.8c2.5,2.5,6,4.1,9.8,4.1c7.6,0,13.8-6.2,13.8-13.8V39.2H156.2z"/>
	<radialGradient id="SVGID_6_" cx="155.3374" cy="72.8046" r="91.6352" gradientUnits="userSpaceOnUse">
		<stop  offset="0.1587" style="stop-color:#4D4D4D"/>
		<stop  offset="1" style="stop-color:#FFFFFF;stop-opacity:0"/>
	</radialGradient>
	<path class="st9" d="M207.8,37.4c-9.3,0-16.4,3.2-21.4,9.6v25.2c0-5.5,1.7-9.9,5.2-13.4c3.4-3.5,7.8-5.2,13.1-5.2
		c5.3,0,9.7,1.7,13.2,5.2c3.5,3.5,5.2,8,5.2,13.4c0,5.5-1.7,9.9-5.2,13.4c-3.5,3.5-7.9,5.2-13.2,5.2c-5.3,0-9.6-1.7-13.1-5.2
		c-3.4-3.5-5.2-8-5.2-13.4v25.2c5,6.4,12.2,9.6,21.4,9.6c8.9,0,16.5-3.4,22.8-10.1c6.3-6.7,9.5-15,9.5-24.8c0-9.8-3.2-18-9.5-24.8
		C224.3,40.7,216.7,37.4,207.8,37.4z"/>
	<radialGradient id="SVGID_7_" cx="243.6296" cy="118.6032" r="78.6881" gradientUnits="userSpaceOnUse">
		<stop  offset="0.1587" style="stop-color:#4D4D4D"/>
		<stop  offset="1" style="stop-color:#FFFFFF;stop-opacity:0"/>
	</radialGradient>
	<path class="st10" d="M285.1,91.7c-10.1,0-16.3-4.1-18.6-12.4c0,0-1.2,27.7,28.5,26.7c7.8-1.9,14-6.2,18.7-13l-13.7-7.9
		C296.6,89.5,291.7,91.7,285.1,91.7z"/>
</g>
</svg>
