<svg id="Layer_1" data-name="Layer 1" xmlns="http://www.w3.org/2000/svg" xmlns:xlink="http://www.w3.org/1999/xlink" viewBox="0 0 447.2 134.9"><defs><style>.cls-1{fill:#00293f;}.cls-2{fill:#00bdff;}.cls-3{fill:#006dc6;isolation:isolate;opacity:0.3;}.cls-4{fill:url(#radial-gradient);}.cls-5{fill:url(#radial-gradient-2);}.cls-6{fill:url(#radial-gradient-3);}.cls-7{fill:url(#radial-gradient-4);}</style><radialGradient id="radial-gradient" cx="67.83" cy="997.68" r="61.57" gradientTransform="translate(0 -944)" gradientUnits="userSpaceOnUse"><stop offset="0" stop-color="#0081ff"/><stop offset="1" stop-color="aqua" stop-opacity="0"/></radialGradient><radialGradient id="radial-gradient-2" cx="51.78" cy="1069.92" r="56.07" gradientTransform="translate(0 -944)" gradientUnits="userSpaceOnUse"><stop offset="0" stop-color="#0043a7"/><stop offset="1" stop-color="#00bdff" stop-opacity="0"/></radialGradient><radialGradient id="radial-gradient-3" cx="61.73" cy="938.07" r="54.01" xlink:href="#radial-gradient-2"/><radialGradient id="radial-gradient-4" cx="-44.62" cy="968.17" r="127.34" gradientTransform="translate(0 -944)" gradientUnits="userSpaceOnUse"><stop offset="0.16"/><stop offset="1" stop-opacity="0"/></radialGradient></defs><path class="cls-1" d="M435.7,12.8h11.5v92.5H435.7V93.9c-5.7,8.7-14.1,13.1-25,13.1A32,32,0,0,1,387,96.9a34.2,34.2,0,0,1-9.8-24.6A34.6,34.6,0,0,1,387,47.6a31.83,31.83,0,0,1,23.7-10.1c10.9,0,19.3,4.4,25,13.1ZM412.2,95.9a23.07,23.07,0,0,0,23.5-23.7A23.15,23.15,0,0,0,429,55.3a22.47,22.47,0,0,0-16.8-6.8,23.07,23.07,0,0,0-23.4,23.7,23.15,23.15,0,0,0,6.7,16.9A22.4,22.4,0,0,0,412.2,95.9Z"/><path class="cls-1" d="M379,103.1a47.83,47.83,0,0,1-7-9.4H339.8V64.3h27.5a44.06,44.06,0,0,1,3.6-11.5H339.7V24.4H382V12.8H327.4v92.5h53.8C380.5,104.6,379.7,103.9,379,103.1Z"/><path class="cls-2" d="M34.4,76.5a9.1,9.1,0,1,1,0-18.2A23.54,23.54,0,0,0,57.9,34.8V25.5A25.54,25.54,0,0,1,83.4,0h8.1a9.1,9.1,0,0,1,0,18.2H83.4a7.34,7.34,0,0,0-7.3,7.3v9.3A41.74,41.74,0,0,1,34.4,76.5Z"/><path class="cls-3" d="M34.4,76.5A41.66,41.66,0,0,0,66,62a43.52,43.52,0,0,0-17.7-8.2,23.71,23.71,0,0,1-13.8,4.5,9.1,9.1,0,0,0-.1,18.2Z"/><path class="cls-2" d="M91.6,134.9H83.5A25.48,25.48,0,0,1,58,109.4v-9.3A23.54,23.54,0,0,0,34.5,76.6a9.1,9.1,0,0,1,0-18.2,41.74,41.74,0,0,1,41.7,41.7v9.3a7.34,7.34,0,0,0,7.3,7.3h8.1a9.1,9.1,0,1,1,0,18.2Z"/><path class="cls-1" d="M9.1,134.9A9.13,9.13,0,0,1,0,125.8V9.1a9.1,9.1,0,0,1,18.2,0V125.8A9.13,9.13,0,0,1,9.1,134.9Z"/><path class="cls-4" d="M25.3,67.4a9.13,9.13,0,0,0,9.1,9.1A23.54,23.54,0,0,1,57.9,100s-.2-36.9-23.5-41.7A9.2,9.2,0,0,0,25.3,67.4Z"/><path class="cls-5" d="M100.6,125.8a9.13,9.13,0,0,0-9.1-9.1H83.4a7.34,7.34,0,0,1-7.3-7.3s-3.8,24.4,15.5,25.5A9,9,0,0,0,100.6,125.8Z"/><path class="cls-6" d="M100.6,9.1a9.13,9.13,0,0,1-9.1,9.1H83.4a7.34,7.34,0,0,0-7.3,7.3S72.3,1.1,91.6,0A9,9,0,0,1,100.6,9.1Z"/><path class="cls-1" d="M207.8,37.4c8.9,0,16.5,3.4,22.8,10.1s9.5,15,9.5,24.8a35.09,35.09,0,0,1-9.5,24.8c-6.3,6.7-13.9,10.1-22.8,10.1-9.3,0-16.4-3.2-21.4-9.6v7.8H169.3V12.8h17.1V47C191.4,40.6,198.6,37.4,207.8,37.4ZM191.6,85.7a17.48,17.48,0,0,0,13.1,5.2,17.86,17.86,0,0,0,13.2-5.2,18.16,18.16,0,0,0,5.2-13.4c0-5.5-1.7-9.9-5.2-13.4a17.86,17.86,0,0,0-13.2-5.2,17.63,17.63,0,0,0-13.1,5.2,18.56,18.56,0,0,0-5.2,13.4A18.16,18.16,0,0,0,191.6,85.7Z"/><path class="cls-1" d="M266.5,79.3c2.3,8.3,8.5,12.4,18.6,12.4,6.5,0,11.5-2.2,14.8-6.6L313.6,93q-9.75,14.1-28.8,14.1c-10.9,0-19.7-3.3-26.3-9.9s-9.9-14.9-9.9-25,3.3-18.3,9.8-24.9,14.9-10,25.1-10c9.7,0,17.7,3.3,24,10s9.4,15,9.4,24.8a35.31,35.31,0,0,1-.7,7H266.5Zm-.3-13.2h33.7c-1-4.5-3-7.8-6-10a17.19,17.19,0,0,0-10.4-3.3,18.22,18.22,0,0,0-11.4,3.5A16.37,16.37,0,0,0,266.2,66.1Z"/><path class="cls-7" d="M9.1,134.9a9.13,9.13,0,0,0,9.1-9.1V27.2C18.2,72.3,0,48,0,103v22.8A9.13,9.13,0,0,0,9.1,134.9Z"/><path class="cls-1" d="M139.1,39.2V76.3a13.83,13.83,0,0,1-13.8,13.8h0a13.83,13.83,0,0,1-13.8-13.8V39.2h-17V76.3a30.92,30.92,0,0,0,30.9,30.9h0a30.92,30.92,0,0,0,30.9-30.9V39.2Z"/><path class="cls-1" d="M156.2,39.2V76.3a31,31,0,0,1-18.5,28.3,18,18,0,0,1-10.2,1.5c-17.4-2.9-16-29.8-16-29.8a13.8,13.8,0,1,0,27.6.1V39.2Z"/><path class="cls-1" d="M207.8,37.4c-9.3,0-16.4,3.2-21.4,9.6V72.2c0-5.5,1.7-9.9,5.2-13.4a17.48,17.48,0,0,1,13.1-5.2,17.86,17.86,0,0,1,13.2,5.2,18.16,18.16,0,0,1,5.2,13.4c0,5.5-1.7,9.9-5.2,13.4a17.86,17.86,0,0,1-13.2,5.2,17.63,17.63,0,0,1-13.1-5.2,18.56,18.56,0,0,1-5.2-13.4V97.4c5,6.4,12.2,9.6,21.4,9.6,8.9,0,16.5-3.4,22.8-10.1s9.5-15,9.5-24.8a35.09,35.09,0,0,0-9.5-24.8A30.38,30.38,0,0,0,207.8,37.4Z"/><path class="cls-1" d="M285.1,91.7c-10.1,0-16.3-4.1-18.6-12.4,0,0-1.2,27.7,28.5,26.7a30.93,30.93,0,0,0,18.7-13L300,85.1C296.6,89.5,291.7,91.7,285.1,91.7Z"/></svg>