<svg xmlns="http://www.w3.org/2000/svg" width="971.052" height="628.416" viewBox="0 0 971.052 628.416">
  <g id="kubbgnew" transform="translate(0 0.035)">
    <path id="Path_250" data-name="Path 250" d="M847.931,636.215h0a249.622,249.622,0,0,1-2.095-54.111l2.095-29.889h0c-11.542,22.966-8.933,53.192,0,84Z" transform="translate(-114.474 -135.809)" fill="#cacaca"/>
    <path id="Path_251" data-name="Path 251" d="M856.931,641.215h0a183.5,183.5,0,0,1-1.008-32.209l1.008-17.791h0C851.378,604.885,852.633,622.877,856.931,641.215Z" transform="translate(-114.474 -135.809)" fill="#cacaca"/>
    <path id="Path_252" data-name="Path 252" d="M896.936,663.217v10a3.016,3.016,0,0,1-3,3h-5a1,1,0,0,0-1,1v82a3.016,3.016,0,0,1-3,3h-61a3,3,0,0,1-3-3v-82a1,1,0,0,0-1-1h-6a3,3,0,0,1-3-3v-10a3,3,0,0,1,3-3h80a3.009,3.009,0,0,1,3,3Z" transform="translate(-114.474 -135.809)" fill="#f2f2f2"/>
    <rect id="Rectangle_1118" data-name="Rectangle 1118" width="67" height="3" transform="translate(706.552 542.508)" fill="#e6e6e6"/>
    <path id="Path_253" data-name="Path 253" d="M887.936,722.462c-22.42,9.278-45.084,9.38-68,0V701.327a106.791,106.791,0,0,1,68,0Z" transform="translate(-114.474 -135.809)" fill="#e6e6e6"/>
    <circle id="Ellipse_48" data-name="Ellipse 48" cx="36.396" cy="36.396" r="36.396" transform="translate(415.085 177.589)" fill="#2f2e41"/>
    <path id="Path_254" data-name="Path 254" d="M576.095,314.4a36.4,36.4,0,0,1,32.039,53.669,36.387,36.387,0,1,0-60.454-39.982A36.306,36.306,0,0,1,576.095,314.4Z" transform="translate(-114.474 -135.809)" fill="#2f2e41"/>
    <circle id="Ellipse_49" data-name="Ellipse 49" cx="106.912" cy="106.912" r="106.912" transform="translate(276.558 0.084)" fill="#2f2e41"/>
    <path id="Path_255" data-name="Path 255" d="M414.036,176.471A106.893,106.893,0,0,1,562.2,165.261c-.874-.831-1.739-1.669-2.648-2.476A106.913,106.913,0,1,0,417.489,322.592c.909.807,1.842,1.568,2.77,2.339a106.893,106.893,0,0,1-6.223-148.46Z" transform="translate(-114.474 -135.809)" fill="#2f2e41"/>
    <circle id="Ellipse_50" data-name="Ellipse 50" cx="68.859" cy="68.859" r="68.859" transform="translate(313.706 75.284)" fill="#ffb8b8"/>
    <path id="Path_256" data-name="Path 256" d="M532.214,367.505l-73.689,3.313s6.15,38.108-33.715,41.732-76.107-7.248-90.6,19.933-8.248,123.966-8.248,123.966S353.139,654.3,374.884,668.8,586.9,663.362,586.9,663.362l79.629-100.545-2.7-77.539c-1.408-40.491-38.377-70.892-78.193-63.4q-1.173.221-2.362.475s-8.747-6.538-32.747-18.538C535.849,396.479,532.214,367.505,532.214,367.505Z" transform="translate(-114.474 -135.809)" fill="#cacaca"/>
    <path id="Path_257" data-name="Path 257" d="M372.26,410.738s17.514,31.778,10.266,77.08S405.69,628.932,405.69,628.932l21.745-5.436s-14.5-94.228-10.872-115.973,4.624-85.913-13.5-96.785S372.26,410.738,372.26,410.738Z" transform="translate(-114.474 -135.809)" fill="#2f2e41"/>
    <path id="Path_258" data-name="Path 258" d="M582,427.4l7.617,200.626,14.5,9.06s20.839-220.167,9.966-220.167H591.956a9.97,9.97,0,0,0-9.97,9.97Q581.986,427.145,582,427.4Z" transform="translate(-114.474 -135.809)" fill="#2f2e41"/>
    <circle id="Ellipse_51" data-name="Ellipse 51" cx="9.06" cy="9.06" r="9.06" transform="translate(292.122 470.472)" fill="#6c63ff"/>
    <circle id="Ellipse_52" data-name="Ellipse 52" cx="9.06" cy="9.06" r="9.06" transform="translate(473.33 479.532)" fill="#6c63ff"/>
    <path id="Path_259" data-name="Path 259" d="M323.672,58.069v68.859h15.947l20.3-21.745L357.2,126.928h70.489l-4.349-21.745,8.7,21.745h11.235V58.069Z" fill="#2f2e41"/>
    <ellipse id="Ellipse_53" data-name="Ellipse 53" cx="5.436" cy="9.966" rx="5.436" ry="9.966" transform="translate(307.364 119.681)" fill="#ffb8b8"/>
    <ellipse id="Ellipse_54" data-name="Ellipse 54" cx="5.436" cy="9.966" rx="5.436" ry="9.966" transform="translate(446.893 119.681)" fill="#ffb8b8"/>
    <path id="Path_260" data-name="Path 260" d="M717.626,744.255v6.07a13.34,13.34,0,0,1-.91,4.87,13.682,13.682,0,0,1-.97,2,13.437,13.437,0,0,1-11.55,6.56H257.646a13.438,13.438,0,0,1-11.55-6.56,13.692,13.692,0,0,1-.97-2,13.341,13.341,0,0,1-.91-4.87v-6.07a13.426,13.426,0,0,1,13.423-13.43h25.747v-2.83a.559.559,0,0,1,.558-.56h13.432a.559.559,0,0,1,.56.558v2.832h8.39v-2.83a.559.559,0,0,1,.558-.56h13.432a.559.559,0,0,1,.56.558v2.832h8.4v-2.83a.559.559,0,0,1,.558-.56h13.432a.559.559,0,0,1,.56.558v2.832h8.39v-2.83a.559.559,0,0,1,.558-.56h13.432a.559.559,0,0,1,.56.558v2.832h8.39v-2.83a.559.559,0,0,1,.558-.56h13.432a.559.559,0,0,1,.56.558v2.832h8.4v-2.83a.559.559,0,0,1,.558-.56H412.1a.559.559,0,0,1,.56.558v2.832h8.39v-2.83a.559.559,0,0,1,.558-.56h105.2a.559.559,0,0,1,.56.558v2.832h8.4v-2.83a.559.559,0,0,1,.558-.56h13.432a.566.566,0,0,1,.56.56v2.83h8.39v-2.83a.559.559,0,0,1,.558-.56H572.7a.559.559,0,0,1,.56.558v2.832h8.39v-2.83a.559.559,0,0,1,.558-.56h13.432a.559.559,0,0,1,.56.558v2.832h8.4v-2.83a.559.559,0,0,1,.558-.56h13.432a.557.557,0,0,1,.55.56v2.83h8.4v-2.83a.559.559,0,0,1,.558-.56h13.432a.559.559,0,0,1,.56.558v2.832h8.39v-2.83a.559.559,0,0,1,.558-.56h13.432a.559.559,0,0,1,.56.558v2.832H704.2a13.426,13.426,0,0,1,13.43,13.423Z" transform="translate(-114.474 -135.809)" fill="#3f3d56"/>
    <rect id="Rectangle_1119" data-name="Rectangle 1119" width="971.052" height="2" transform="translate(0 626.381)" fill="#3f3d56"/>
    <path id="Path_261" data-name="Path 261" d="M681.668,488.621H272.625a11.259,11.259,0,0,0-11.259,11.259V727.791a11.259,11.259,0,0,0,11.259,11.259H681.668a11.259,11.259,0,0,0,11.259-11.259V499.88a11.259,11.259,0,0,0-11.259-11.259Z" transform="translate(-114.474 -135.809)" fill="#3f3d56"/>
    <circle id="Ellipse_55" data-name="Ellipse 55" cx="25" cy="25" r="25" transform="translate(338 407.381)" fill="#92b5ff"/>
    <path id="Path_262" data-name="Path 262" d="M517.763,267.219l126.206-127.2h59.583v-2H643.134l-.293.3-126.5,127.5Z" fill="#3f3d56"/>
    <rect id="Rectangle_1120" data-name="Rectangle 1120" width="146.224" height="13.03" transform="translate(776.328 87.792)" fill="#326ce5"/>
    <path id="Path_263" data-name="Path 263" d="M872.981,244.87H842.026V213.915h30.955Zm-28.955-2h26.955V215.915H844.026Z" transform="translate(-114.474 -135.809)" fill="#3f3d56"/>
    <path id="Path_266" data-name="Path 266" d="M0,0H146.224V13.03H0Z" transform="translate(776.328 131.225)" fill="#326ce5"/>
    <path id="Path_264" data-name="Path 264" d="M872.981,288.3H842.026V257.348h30.955Zm-28.955-2h26.955V259.348H844.026Z" transform="translate(-114.474 -135.809)" fill="#3f3d56"/>
    <rect id="Rectangle_1122" data-name="Rectangle 1122" width="146.224" height="13.03" transform="translate(776.328 174.658)" fill="#326ce5"/>
    <path id="Path_265" data-name="Path 265" d="M872.981,331.736H842.026V300.781h30.955Zm-28.955-2h26.955V302.781H844.026Z" transform="translate(-114.474 -135.809)" fill="#3f3d56"/>
  </g>
</svg>
