<svg id="Srinath_-_Logo_Design_Complete_-_SVG_File" data-name="Srinath - Logo Design (Complete) - SVG File" xmlns="http://www.w3.org/2000/svg" width="1440" height="312.326" viewBox="0 0 1440 312.326">
  <path id="Path_1" data-name="Path 1" d="M124.108,102.347l-16.192,15.041L69.892,152.995,53.7,137.954l38.024-35.607L53.7,66.741,69.892,51.7l38.024,35.607Z" transform="translate(49.322 47.485)"/>
  <path id="Path_2" data-name="Path 2" d="M322.079,702.894v6.254c0,4.144-2.782,7.674-6.043,7.674H261.743c-3.261,0-6.043-3.261-6.043-7.674h0v-6.254c0-4.144,2.782-7.674,6.043-7.674h54.293C319.527,695.22,322.079,698.481,322.079,702.894Z" transform="translate(-104.141 -503.143)"/>
  <path id="Path_3" data-name="Path 3" d="M218.513,235.971l36.259-47.386L234.628,96.307,153.094,55.252,71.751,96.307,51.607,188.585l56.4,73.861h90.36l30.887,39.52-7.866,10.36H84.988L0,200.863,30.312,61.775,153.094,0,276.067,61.775l30.312,139.089-56.787,74.628Z" fill="#0096ff"/>
  <path id="Path_4" data-name="Path 4" d="M788.909,35.3l-23.6,28.2L741.906,91.895l-19.952,23.981L701.427,91.895l-1.726-2.11L721.57,63.5l23.405-28.2Z" transform="translate(642.65 32.422)" fill="#1170ed"/>
  <path id="Path_5" data-name="Path 5" d="M767.021,124.317,746.11,149.832l-1.343,1.727-17.458,21.1-45.468,55.827H638.1l82.686-100.528L644.431,35.3h46.81l36.067,42.4,18.8,21.679.959,1.343Z" transform="translate(586.073 32.422)" fill="#1170ed"/>
  <path id="Path_6" data-name="Path 6" d="M798.452,180.546H751.641l-.767-.959L698.5,114.934,720.946,87.5Z" transform="translate(641.548 80.366)" fill="#1170ed"/>
  <path id="Path_7" data-name="Path 7" d="M788.909,35.3l-23.6,28.2L741.906,91.895l-19.952,23.981L701.427,91.895l-1.726-2.11L721.57,63.5l23.405-28.2Z" transform="translate(642.65 32.422)" fill="#1170ed"/>
  <path id="Path_8" data-name="Path 8" d="M767.021,124.317,746.11,149.832l-1.343,1.727-17.458,21.1-45.468,55.827H638.1l82.686-100.528L644.431,35.3h46.81l36.067,42.4,18.8,21.679.959,1.343Z" transform="translate(586.073 32.422)" fill="#0096ff"/>
  <path id="Path_9" data-name="Path 9" d="M798.452,180.546H751.641l-.767-.959L698.5,114.934,720.946,87.5Z" transform="translate(641.548 80.366)" fill="#1b3137"/>
  <path id="Path_10" data-name="Path 10" d="M741.08,64.8,721.128,88.781,700.6,64.8Z" transform="translate(643.477 59.517)" fill="#2c3234"/>
  <path id="Path_11" data-name="Path 11" d="M765.312,50,741.906,78.393h-40.48l-1.726-2.11L721.57,50Z" transform="translate(642.65 45.923)" fill="#2c3234"/>
  <path id="Path_12" data-name="Path 12" d="M778.438,35.3,755.033,63.5H711.1l23.405-28.2Z" transform="translate(653.121 32.422)" fill="#606b6e"/>
  <path id="Path_13" data-name="Path 13" d="M677.2,630.4H639.4V745.508c0,17.266-4.221,30.12-13.046,38.177S604.1,795.964,585.3,795.964s-32.422-4.029-41.055-12.278-12.854-20.911-12.854-38.177V630.4H493.6V743.781c0,28.01,7.674,49.3,23.022,63.309s38.369,21.1,68.873,21.1,53.525-7.29,68.681-21.1,23.021-35.3,23.021-63.309Z" transform="translate(114.362 -562.678)" fill="#1b3137"/>
  <path id="Path_14" data-name="Path 14" d="M752.032,721.235c17.65-7.674,26.859-21.295,26.859-40.288,0-33.573-26.091-50.648-77.7-50.648H611.6v193h93.621c26.091,0,46.427-4.8,60.24-14.388s21.1-24.173,21.1-42.974C786.18,745.408,774.669,730.444,752.032,721.235ZM648.051,661.187h51.8c15.156,0,25.9,1.918,32.422,5.564s9.017,9.209,9.017,17.074c.192,8.441-2.686,14.388-8.825,18.225h0c-6.523,4.029-16.5,5.947-29.928,5.947H648.051Zm90.168,125.276c-6.906,4.029-18.993,6.715-34.916,6.715H648.051V738.309h55.827c15.54,0,27.05,2.3,34.341,6.906s10.36,11.319,10.36,20.911S745.125,782.434,738.219,786.463Z" transform="translate(222.741 -562.77)" fill="#1b3137"/>
  <path id="Path_15" data-name="Path 15" d="M581.586,145.42H696.118V112.614H581.586V68.106H701.873V35.3H543.6V228.489H701.873V195.684H581.586Z" transform="translate(499.278 32.422)" fill="#1b3137"/>
  <path id="Path_16" data-name="Path 16" d="M313.6,105.324,396.858,35.3H348.513L247.986,118.753V35.3H210V228.489h37.986v-70.6l31.847-25.132Z" transform="translate(192.878 32.422)" fill="#1b3137"/>
  <path id="Path_17" data-name="Path 17" d="M278.226,76.8,250.6,99.054l70.216,91.319H365.9Z" transform="translate(230.167 70.538)" fill="#1b3137"/>
</svg>
