<svg xmlns="http://www.w3.org/2000/svg" width="856.113" height="499.753" viewBox="0 0 856.113 499.753"><g transform="translate(-35.14 42.717)"><path d="M0,0H752l65.018,34.838H-39.1Z" transform="translate(74.236 422.199)" fill="#f2f1f1"/><path d="M267.718,582.341H954.362V234.73H267.718Z" transform="translate(-143.5 -229.066)" fill="#fff"/><path d="M960.026,588.005H262.054V229.066H960.026ZM273.382,576.677H948.7V240.394H273.382Z" transform="translate(-143.5 -229.066)" fill="#e5e5e5"/><path d="M444.691,79.2V197.186H273.183L241.5,235.2l3.618-38.017H229.7V79.2Z" transform="translate(3.421 -14.02)" fill="#326ce5"/><path d="M94.66,430.711h9.921l4.72-38.266H94.659Z" fill="#ffb7b7"/><path d="M235.63,656.538h19.539a12.452,12.452,0,0,1,12.451,12.45v.405H235.63Z" transform="translate(-143.5 -229.066)" fill="#2f2e41"/><path d="M213.852,430.385l9.634-2.371-4.561-38.285-14.218,3.5Z" fill="#ffb7b7"/><path d="M354.121,656.911l18.972-4.669h0a12.452,12.452,0,0,1,15.065,9.115l.1.393-31.062,7.645Z" transform="translate(-143.5 -229.066)" fill="#2f2e41"/><path d="M232.059,650.653l2.061-10.544s3.794-40.713,31.019-81.346L274,514.624s-2.632-33.41,22.77-51.5l7.831-5.395,27.457,1.574,6.342,34.718,12.777,82.148s3.3.309,4.534,9.809a28.568,28.568,0,0,1,4.328,13.242s6.539,18.039,8.291,31.321l-.206,13L354.317,650.9l-28.779-81.39-20.584-45.5s-9.907,32.059-25.082,59.523c0,0-20.784,44.987-24.937,54.127L250.4,652.615Z" transform="translate(-143.5 -229.066)" fill="#2f2e41"/><circle cx="19.625" cy="19.625" r="19.625" transform="translate(160.738 119.557)" fill="#ffb7b7"/><circle cx="19.625" cy="19.625" r="19.625" transform="translate(160.738 119.557)" fill="#ffb8b8"/><path d="M296.829,463.338l6.479-16.183a72.785,72.785,0,0,1,.8-45.383h0l1.239-1.021c10.8-8.893,20.276-7.274,29.071,3.6h0A24.317,24.317,0,0,0,339.34,409c3.879,2.721,10.033,17.507,1.907,26.174l-6.5,37.918C335.431,494.023,320.24,486.14,296.829,463.338Z" transform="translate(-143.5 -229.066)" fill="#3f3d56"/><path d="M389.723,441.328a7.185,7.185,0,0,0-10.737,2.471l-16.37-1.275-3.2,9.759,23.143,1.475a7.224,7.224,0,0,0,7.165-12.431Z" transform="translate(-143.5 -229.066)" fill="#ffb7b7"/><path d="M374.05,457.159l-46.646-8.71-15.172-25.436a10.834,10.834,0,1,1,20.382-7.351l7.116,19.678,36.89,6.106Z" transform="translate(-143.5 -229.066)" fill="#ccc"/><circle cx="18.828" cy="18.828" r="18.828" transform="translate(126.553 97.227)" fill="#2f2e41"/><path d="M272.641,360.712a18.829,18.829,0,0,0,29.076-9.886,18.829,18.829,0,1,1-36.729-7.721,18.822,18.822,0,0,0,7.653,17.608Z" transform="translate(-143.5 -229.066)" fill="#2f2e41"/><path d="M346.945,360.733c-3.287-5.885-4.545-8.343-8.783-11.921-3.748-3.165-8.358-4.094-12.076-1.1a22.4,22.4,0,1,0,13.284,17.922C342.6,365.184,343.713,361.187,346.945,360.733Z" transform="translate(-143.5 -229.066)" fill="#2f2e41"/><path d="M925.749,501.591a8.893,8.893,0,0,1,10.858-8.251l11.761-16.574,11.815,4.69-16.937,23.173a8.942,8.942,0,0,1-17.5-3.038Z" transform="translate(-143.5 -229.066)" fill="#a0616a"/><path d="M938.65,487.337l20.91-35.168-8.519-22.718,11.6-30.942.428.184c.281.12,6.873,3.062,7.851,13.6L984.257,454.2,948.67,500.363Z" transform="translate(-143.5 -229.066)" fill="#3f3d56"/><g transform="translate(622.631 87.403)"><path d="M93.19,90.8a1.243,1.243,0,0,0-.3-.022,1.275,1.275,0,0,0-.493.128,1.289,1.289,0,0,0-.624,1.67l-.009.013,2.952,7.131a15.067,15.067,0,0,0,6.09-7.65L93.2,90.789ZM81.355,91.815a1.288,1.288,0,0,0-1.235-1,1.266,1.266,0,0,0-.254.023l-.013-.016-7.54,1.28a15.124,15.124,0,0,0,6.071,7.6l2.922-7.061-.023-.028A1.275,1.275,0,0,0,81.355,91.815Zm6.315,2.769a1.287,1.287,0,0,0-2.27,0h-.006l-3.708,6.705a15.1,15.1,0,0,0,8.243.424q.76-.173,1.486-.415L87.7,94.584ZM99.408,79.009,93.7,84.115l0,.016a1.289,1.289,0,0,0,.505,2.213l.007.031,7.39,2.129a15.326,15.326,0,0,0-2.2-9.495Zm-10.6.572a1.289,1.289,0,0,0,2.047.983l.023.01,6.243-4.427a15.177,15.177,0,0,0-8.752-4.219l.434,7.651ZM82.2,80.592a1.288,1.288,0,0,0,2.043-.986l.032-.015.434-7.663a15.467,15.467,0,0,0-1.558.268A15.045,15.045,0,0,0,75.9,76.145L82.186,80.6Zm-3.35,5.79a1.288,1.288,0,0,0,.506-2.214l.006-.03-5.737-5.131a15.04,15.04,0,0,0-2.135,9.522l7.353-2.122Zm5.572,2.254,2.116,1.018,2.11-1.015.524-2.278-1.46-1.826H85.36L83.9,86.357Z" transform="translate(-37.696 -38.254)"/><path d="M83.824,54.87l-6.03-26.193a4.708,4.708,0,0,0-2.524-3.14L50.861,13.883a4.7,4.7,0,0,0-4.051,0l-24.4,11.66a4.707,4.707,0,0,0-2.525,3.14L13.86,54.875a4.609,4.609,0,0,0,0,2.011,4.675,4.675,0,0,0,.17.595,4.534,4.534,0,0,0,.465.944c.083.126.17.249.265.368l16.892,21c.074.091.155.175.236.26a4.646,4.646,0,0,0,.891.738,4.819,4.819,0,0,0,1.335.58,4.6,4.6,0,0,0,1.187.164h.263l26.826-.006a4.5,4.5,0,0,0,.488-.029,4.663,4.663,0,0,0,.688-.131,4.8,4.8,0,0,0,.478-.153c.122-.047.244-.093.362-.15a4.827,4.827,0,0,0,.512-.285,4.6,4.6,0,0,0,1.12-.992l.515-.64L82.922,58.785a4.564,4.564,0,0,0,.73-1.31,4.732,4.732,0,0,0,.173-.6,4.6,4.6,0,0,0,0-2.011ZM58.506,65.057a5.023,5.023,0,0,0,.243.589,1.147,1.147,0,0,0-.113.862,13.628,13.628,0,0,0,1.3,2.319,12.136,12.136,0,0,1,.783,1.164c.059.109.136.278.191.393a1.468,1.468,0,1,1-2.641,1.248c-.056-.114-.133-.267-.181-.375a12.209,12.209,0,0,1-.424-1.339,13.6,13.6,0,0,0-1-2.456,1.154,1.154,0,0,0-.746-.452c-.047-.081-.22-.4-.313-.562a18.9,18.9,0,0,1-13.481-.035l-.331.6a1.187,1.187,0,0,0-.63.307,10.217,10.217,0,0,0-1.131,2.624,12.079,12.079,0,0,1-.422,1.339c-.047.107-.125.258-.181.371v0l0,0a1.467,1.467,0,1,1-2.637-1.252c.055-.116.129-.284.187-.393a12.174,12.174,0,0,1,.783-1.167,14.27,14.27,0,0,0,1.322-2.376,1.45,1.45,0,0,0-.13-.826l.266-.637A19.01,19.01,0,0,1,30.79,54.492l-.637.108a1.62,1.62,0,0,0-.84-.3,13.68,13.68,0,0,0-2.546.749,12.317,12.317,0,0,1-1.311.5c-.106.029-.258.058-.378.084-.01,0-.018.008-.028.01l-.022,0a1.466,1.466,0,1,1-.649-2.847L24.4,52.8l.013,0c.122-.029.279-.069.39-.091a12.21,12.21,0,0,1,1.4-.113,13.633,13.633,0,0,0,2.618-.43,2.02,2.02,0,0,0,.628-.633l.612-.179a18.9,18.9,0,0,1,2.981-13.178l-.468-.417a1.623,1.623,0,0,0-.294-.843,13.625,13.625,0,0,0-2.173-1.526,12.2,12.2,0,0,1-1.211-.708c-.089-.066-.206-.165-.3-.244l-.022-.015a1.548,1.548,0,0,1-.359-2.154,1.407,1.407,0,0,1,1.164-.515,1.741,1.741,0,0,1,1.018.384c.1.078.235.182.324.258a12.2,12.2,0,0,1,.962,1.021,13.631,13.631,0,0,0,1.969,1.78,1.154,1.154,0,0,0,.868.084q.261.19.527.375A18.791,18.791,0,0,1,44.592,30.2a19.055,19.055,0,0,1,2.641-.406l.035-.617a1.592,1.592,0,0,0,.474-.756,13.663,13.663,0,0,0-.163-2.649,12.274,12.274,0,0,1-.2-1.389c0-.106,0-.253,0-.374,0-.014,0-.027,0-.041a1.468,1.468,0,1,1,2.922,0c0,.128.008.3,0,.415a12.154,12.154,0,0,1-.2,1.389,13.683,13.683,0,0,0-.165,2.65,1.157,1.157,0,0,0,.477.73c.005.106.022.458.035.652a19.144,19.144,0,0,1,12.125,5.859l.556-.4a1.623,1.623,0,0,0,.886-.1,13.682,13.682,0,0,0,1.969-1.782,12.119,12.119,0,0,1,.965-1.021c.09-.077.225-.18.324-.258A1.468,1.468,0,1,1,69.1,34.39c-.1.079-.227.19-.322.26a12.146,12.146,0,0,1-1.214.708,13.67,13.67,0,0,0-2.173,1.526,1.155,1.155,0,0,0-.274.827c-.081.075-.367.328-.518.465a18.98,18.98,0,0,1,3.043,13.147l.59.172a1.642,1.642,0,0,0,.63.634,13.66,13.66,0,0,0,2.619.431,12.336,12.336,0,0,1,1.4.112c.123.022.3.072.426.1a1.466,1.466,0,1,1-.65,2.846l-.021,0c-.01,0-.019-.008-.029-.01-.12-.026-.272-.053-.377-.08a12.163,12.163,0,0,1-1.31-.506,13.665,13.665,0,0,0-2.548-.749,1.155,1.155,0,0,0-.818.3q-.312-.059-.624-.109a19.009,19.009,0,0,1-8.42,10.593Z" transform="translate(0)"/></g><g transform="translate(632.972 49.816)"><path d="M81.275,80.483a.563.563,0,0,0-.134-.01.578.578,0,0,0-.224.058.584.584,0,0,0-.283.757l0,.006,1.338,3.232a6.829,6.829,0,0,0,2.76-3.467l-3.447-.583Zm-5.364.458a.584.584,0,0,0-.56-.454.574.574,0,0,0-.115.01l-.006-.007-3.418.58a6.855,6.855,0,0,0,2.752,3.443l1.324-3.2-.01-.013A.578.578,0,0,0,75.911,80.941ZM78.773,82.2a.583.583,0,0,0-1.029,0h0l-1.681,3.039a6.846,6.846,0,0,0,3.736.192q.345-.078.673-.188L78.786,82.2Zm5.32-7.059-2.586,2.314v.007a.584.584,0,0,0,.229,1l0,.014,3.349.965a6.946,6.946,0,0,0-1-4.3Zm-4.8.259a.584.584,0,0,0,.928.446l.01,0,2.829-2.006a6.879,6.879,0,0,0-3.967-1.912l.2,3.468Zm-3,.458a.584.584,0,0,0,.926-.447l.014-.007.2-3.473a7.01,7.01,0,0,0-.706.122,6.819,6.819,0,0,0-3.284,1.79l2.848,2.019Zm-1.518,2.624a.584.584,0,0,0,.229-1l0-.014-2.6-2.326a6.817,6.817,0,0,0-.968,4.316l3.333-.962ZM77.3,79.5l.959.461.956-.46.238-1.033-.662-.828H77.726l-.664.826Z" transform="translate(-48.606 -49.326)"/><path d="M45.509,32.209,42.776,20.337a2.134,2.134,0,0,0-1.144-1.423L30.569,13.632a2.132,2.132,0,0,0-1.836,0L17.672,18.917a2.133,2.133,0,0,0-1.144,1.423L13.8,32.211a2.089,2.089,0,0,0,0,.911,2.119,2.119,0,0,0,.077.27,2.055,2.055,0,0,0,.211.428c.037.057.077.113.12.167l7.656,9.519c.033.041.07.079.107.118a2.106,2.106,0,0,0,.4.335,2.184,2.184,0,0,0,.605.263,2.086,2.086,0,0,0,.538.074h.119l12.158,0a2.04,2.04,0,0,0,.221-.013,2.114,2.114,0,0,0,.312-.059,2.175,2.175,0,0,0,.217-.069c.055-.021.111-.042.164-.068a2.187,2.187,0,0,0,.232-.129,2.087,2.087,0,0,0,.508-.449l.233-.29,7.42-9.231a2.068,2.068,0,0,0,.331-.594,2.144,2.144,0,0,0,.078-.27,2.084,2.084,0,0,0,0-.911ZM34.034,36.826a2.277,2.277,0,0,0,.11.267.52.52,0,0,0-.051.391,6.176,6.176,0,0,0,.587,1.051,5.5,5.5,0,0,1,.355.528c.027.049.061.126.087.178a.665.665,0,1,1-1.2.566c-.025-.052-.06-.121-.082-.17a5.533,5.533,0,0,1-.192-.607,6.166,6.166,0,0,0-.454-1.113.523.523,0,0,0-.338-.205c-.021-.037-.1-.18-.142-.255a8.568,8.568,0,0,1-6.11-.016l-.15.272a.538.538,0,0,0-.285.139,4.631,4.631,0,0,0-.513,1.189,5.474,5.474,0,0,1-.191.607c-.021.049-.057.117-.082.168h0a.665.665,0,1,1-1.2-.567c.025-.053.058-.129.085-.178a5.518,5.518,0,0,1,.355-.529,6.468,6.468,0,0,0,.6-1.077.657.657,0,0,0-.059-.374l.12-.289a8.616,8.616,0,0,1-3.818-4.767l-.288.049a.734.734,0,0,0-.381-.134,6.2,6.2,0,0,0-1.154.34,5.583,5.583,0,0,1-.594.227c-.048.013-.117.026-.171.038l-.013,0h-.01a.665.665,0,1,1-.294-1.29l.01,0,.006,0c.055-.013.126-.031.177-.041a5.534,5.534,0,0,1,.635-.051,6.179,6.179,0,0,0,1.187-.195.915.915,0,0,0,.285-.287l.277-.081a8.567,8.567,0,0,1,1.351-5.973l-.212-.189a.735.735,0,0,0-.133-.382,6.175,6.175,0,0,0-.985-.692,5.53,5.53,0,0,1-.549-.321c-.04-.03-.093-.075-.137-.11l-.01-.007a.7.7,0,0,1-.163-.976.638.638,0,0,1,.528-.233.789.789,0,0,1,.462.174c.045.035.107.083.147.117a5.53,5.53,0,0,1,.436.463,6.178,6.178,0,0,0,.893.807.523.523,0,0,0,.393.038q.118.086.239.17a8.517,8.517,0,0,1,4.326-2.471,8.637,8.637,0,0,1,1.2-.184l.016-.28a.722.722,0,0,0,.215-.343,6.192,6.192,0,0,0-.074-1.2,5.563,5.563,0,0,1-.09-.63c0-.048,0-.115,0-.17,0-.006,0-.012,0-.019a.665.665,0,1,1,1.324,0c0,.058,0,.135,0,.188a5.508,5.508,0,0,1-.091.63,6.2,6.2,0,0,0-.075,1.2.525.525,0,0,0,.216.331c0,.048.01.208.016.3a8.677,8.677,0,0,1,5.5,2.655l.252-.18a.736.736,0,0,0,.4-.044,6.2,6.2,0,0,0,.893-.808,5.493,5.493,0,0,1,.437-.463c.041-.035.1-.082.147-.117a.665.665,0,1,1,.825,1.035c-.044.036-.1.086-.146.118a5.5,5.5,0,0,1-.55.321,6.2,6.2,0,0,0-.985.692.523.523,0,0,0-.124.375l-.235.211A8.6,8.6,0,0,1,38.173,30.6l.267.078a.744.744,0,0,0,.286.287,6.191,6.191,0,0,0,1.187.2,5.591,5.591,0,0,1,.635.051c.056.01.136.032.193.045a.665.665,0,1,1-.295,1.29h-.01l-.013,0c-.055-.012-.123-.024-.171-.036a5.513,5.513,0,0,1-.594-.229,6.193,6.193,0,0,0-1.155-.34.523.523,0,0,0-.371.138q-.141-.027-.283-.05a8.616,8.616,0,0,1-3.816,4.8Z" transform="translate(0 0)"/></g><g transform="translate(575.273 129.759)"><path d="M77.214,76.966a.331.331,0,0,0-.079-.006.34.34,0,0,0-.132.034.344.344,0,0,0-.167.446l0,0,.788,1.9A4.021,4.021,0,0,0,79.248,77.3l-2.03-.343Zm-3.159.27a.344.344,0,0,0-.33-.267.338.338,0,0,0-.068.006l0,0-2.012.342a4.036,4.036,0,0,0,1.62,2.027l.78-1.884-.006-.007A.34.34,0,0,0,74.055,77.235Zm1.685.739a.343.343,0,0,0-.606,0h0l-.99,1.789a4.031,4.031,0,0,0,2.2.113q.2-.046.4-.111l-.992-1.793Zm3.133-4.157L77.351,75.18v0a.344.344,0,0,0,.135.591l0,.008,1.972.568a4.09,4.09,0,0,0-.587-2.534Zm-2.829.153a.344.344,0,0,0,.546.262l.006,0,1.666-1.181a4.051,4.051,0,0,0-2.336-1.126l.116,2.042Zm-1.764.27a.344.344,0,0,0,.545-.263l.008,0,.116-2.045a4.128,4.128,0,0,0-.416.072A4.015,4.015,0,0,0,72.6,73.053l1.677,1.189Zm-.894,1.545a.344.344,0,0,0,.135-.591l0-.008-1.531-1.369a4.014,4.014,0,0,0-.57,2.541l1.963-.566Zm1.487.6.565.272L76,76.387l.14-.608-.39-.487h-.627l-.391.487Z" transform="translate(-52.324 -53.099)"/><path d="M32.451,24.485l-1.609-6.991a1.257,1.257,0,0,0-.674-.838l-6.514-3.11a1.255,1.255,0,0,0-1.081,0l-6.513,3.112a1.256,1.256,0,0,0-.674.838l-1.607,6.99a1.23,1.23,0,0,0,0,.537,1.248,1.248,0,0,0,.045.159,1.21,1.21,0,0,0,.124.252c.022.034.045.067.071.1l4.508,5.605c.02.024.041.047.063.069a1.24,1.24,0,0,0,.238.2,1.286,1.286,0,0,0,.356.155,1.229,1.229,0,0,0,.317.044h.07l7.159,0a1.2,1.2,0,0,0,.13-.008,1.244,1.244,0,0,0,.184-.035,1.281,1.281,0,0,0,.128-.041c.033-.012.065-.025.1-.04A1.287,1.287,0,0,0,27.4,31.4a1.229,1.229,0,0,0,.3-.265l.137-.171L32.21,25.53a1.218,1.218,0,0,0,.195-.35,1.262,1.262,0,0,0,.046-.159,1.227,1.227,0,0,0,0-.537ZM25.694,27.2a1.341,1.341,0,0,0,.065.157.306.306,0,0,0-.03.23,3.637,3.637,0,0,0,.346.619,3.239,3.239,0,0,1,.209.311c.016.029.036.074.051.1a.392.392,0,1,1-.7.333c-.015-.03-.036-.071-.048-.1a3.258,3.258,0,0,1-.113-.357,3.631,3.631,0,0,0-.268-.656.308.308,0,0,0-.2-.121l-.083-.15a5.045,5.045,0,0,1-3.6-.009l-.088.16a.317.317,0,0,0-.168.082,2.727,2.727,0,0,0-.3.7,3.224,3.224,0,0,1-.113.357c-.012.029-.033.069-.048.1h0a.391.391,0,1,1-.7-.334c.015-.031.034-.076.05-.1a3.25,3.25,0,0,1,.209-.312,3.809,3.809,0,0,0,.353-.634.387.387,0,0,0-.035-.221l.071-.17A5.073,5.073,0,0,1,18.3,24.385l-.17.029a.432.432,0,0,0-.224-.079,3.651,3.651,0,0,0-.68.2,3.287,3.287,0,0,1-.35.134c-.028.008-.069.016-.1.023l-.007,0h-.006a.391.391,0,1,1-.173-.76h.009c.033-.008.074-.018.1-.024a3.259,3.259,0,0,1,.374-.03,3.639,3.639,0,0,0,.7-.115.539.539,0,0,0,.168-.169l.163-.048a5.045,5.045,0,0,1,.8-3.517l-.125-.111a.433.433,0,0,0-.078-.225,3.637,3.637,0,0,0-.58-.407,3.256,3.256,0,0,1-.323-.189c-.024-.018-.055-.044-.081-.065l-.006,0a.413.413,0,0,1-.1-.575.376.376,0,0,1,.311-.137.465.465,0,0,1,.272.1c.027.021.063.049.086.069a3.256,3.256,0,0,1,.257.273,3.638,3.638,0,0,0,.526.475.308.308,0,0,0,.232.022l.141.1A5.015,5.015,0,0,1,21.98,17.9a5.086,5.086,0,0,1,.7-.108l.009-.165a.425.425,0,0,0,.127-.2,3.646,3.646,0,0,0-.043-.707,3.275,3.275,0,0,1-.053-.371c0-.028,0-.068,0-.1,0,0,0-.007,0-.011a.392.392,0,1,1,.78,0c0,.034,0,.08,0,.111a3.244,3.244,0,0,1-.053.371,3.652,3.652,0,0,0-.044.707.309.309,0,0,0,.127.195c0,.028.006.122.009.174a5.109,5.109,0,0,1,3.236,1.564l.148-.106a.433.433,0,0,0,.236-.026,3.652,3.652,0,0,0,.526-.476,3.234,3.234,0,0,1,.257-.273c.024-.021.06-.048.086-.069a.392.392,0,1,1,.486.609c-.026.021-.061.051-.086.069a3.242,3.242,0,0,1-.324.189,3.648,3.648,0,0,0-.58.407.308.308,0,0,0-.073.221l-.138.124a5.066,5.066,0,0,1,.812,3.509l.157.046a.438.438,0,0,0,.168.169,3.645,3.645,0,0,0,.7.115,3.293,3.293,0,0,1,.374.03c.033.006.08.019.114.027a.391.391,0,1,1-.173.76h-.006l-.008,0c-.032-.007-.073-.014-.1-.021a3.246,3.246,0,0,1-.35-.135,3.647,3.647,0,0,0-.68-.2.308.308,0,0,0-.218.081l-.167-.029A5.073,5.073,0,0,1,25.694,27.2Z" transform="translate(0 0)"/></g><g transform="translate(76.135 -47.188)"><path d="M99.774,96.507a1.619,1.619,0,0,0-.385-.029,1.661,1.661,0,0,0-.642.167,1.679,1.679,0,0,0-.813,2.175l-.012.017,3.844,9.286a19.619,19.619,0,0,0,7.93-9.961l-9.9-1.674ZM84.363,97.823a1.677,1.677,0,0,0-1.608-1.3,1.648,1.648,0,0,0-.33.029l-.017-.02-9.818,1.667a19.693,19.693,0,0,0,7.905,9.891l3.8-9.194-.03-.036a1.66,1.66,0,0,0,.093-1.032Zm8.223,3.606a1.676,1.676,0,0,0-2.955,0h-.008l-4.828,8.731a19.667,19.667,0,0,0,10.733.552q.99-.225,1.934-.541l-4.84-8.746Zm15.285-20.281L100.442,87.8l0,.021A1.679,1.679,0,0,0,101.1,90.7l.009.04,9.622,2.772a19.956,19.956,0,0,0-2.865-12.363Zm-13.8.745a1.679,1.679,0,0,0,2.665,1.28l.029.012,8.129-5.763a19.763,19.763,0,0,0-11.4-5.494l.565,9.963Zm-8.608,1.316a1.677,1.677,0,0,0,2.661-1.284l.041-.019.565-9.978a20.139,20.139,0,0,0-2.029.35,19.59,19.59,0,0,0-9.436,5.142l8.182,5.8ZM81.1,90.749a1.677,1.677,0,0,0,.659-2.883l.008-.04L74.3,81.146a19.584,19.584,0,0,0-2.78,12.4l9.575-2.763Zm7.255,2.935,2.756,1.325,2.747-1.322.682-2.966-1.9-2.378h-3.06l-1.907,2.374Z" transform="translate(-36.739 -37.054)" fill="#326ce5"/><path d="M105,67.392,97.144,33.285A6.13,6.13,0,0,0,93.857,29.2L62.073,14.021a6.124,6.124,0,0,0-5.275,0L25.021,29.2a6.129,6.129,0,0,0-3.288,4.089L13.894,67.4a6,6,0,0,0,0,2.619,6.087,6.087,0,0,0,.221.774,5.9,5.9,0,0,0,.605,1.229c.108.165.221.325.345.48l22,27.347c.1.119.2.228.307.338a6.05,6.05,0,0,0,1.16.961,6.276,6.276,0,0,0,1.738.756,5.993,5.993,0,0,0,1.546.213h.342l34.931-.008a5.853,5.853,0,0,0,.635-.037,6.071,6.071,0,0,0,.9-.17,6.256,6.256,0,0,0,.622-.2c.159-.061.318-.122.471-.2a6.282,6.282,0,0,0,.667-.37,6,6,0,0,0,1.459-1.291l.671-.834L103.822,72.49a5.942,5.942,0,0,0,.95-1.706,6.159,6.159,0,0,0,.225-.777,5.986,5.986,0,0,0,0-2.619ZM72.029,80.656a6.541,6.541,0,0,0,.317.768,1.494,1.494,0,0,0-.147,1.122,17.744,17.744,0,0,0,1.687,3.02,15.8,15.8,0,0,1,1.02,1.516c.077.142.177.362.249.512a1.911,1.911,0,1,1-3.439,1.626c-.073-.149-.174-.347-.235-.488a15.9,15.9,0,0,1-.552-1.743,17.714,17.714,0,0,0-1.305-3.2,1.5,1.5,0,0,0-.971-.589c-.061-.105-.286-.518-.407-.731a24.616,24.616,0,0,1-17.554-.045l-.43.78a1.545,1.545,0,0,0-.82.4,13.3,13.3,0,0,0-1.473,3.417,15.729,15.729,0,0,1-.549,1.743c-.061.14-.163.335-.235.484v0l0,0a1.91,1.91,0,1,1-3.434-1.63c.072-.151.168-.37.243-.512a15.855,15.855,0,0,1,1.019-1.52A18.582,18.582,0,0,0,46.731,82.5a1.888,1.888,0,0,0-.169-1.076l.346-.829A24.753,24.753,0,0,1,35.939,66.9l-.829.141a2.109,2.109,0,0,0-1.094-.385,17.813,17.813,0,0,0-3.315.976,16.037,16.037,0,0,1-1.707.653c-.137.038-.336.076-.493.11-.013,0-.023.01-.036.013l-.029,0a1.909,1.909,0,1,1-.845-3.707l.027-.007.017,0c.159-.037.363-.09.508-.118a15.9,15.9,0,0,1,1.825-.147,17.752,17.752,0,0,0,3.409-.56,2.63,2.63,0,0,0,.818-.825l.8-.233a24.614,24.614,0,0,1,3.882-17.159l-.61-.544a2.113,2.113,0,0,0-.382-1.1,17.742,17.742,0,0,0-2.829-1.988,15.887,15.887,0,0,1-1.577-.922c-.115-.086-.269-.215-.394-.317l-.028-.02a2.016,2.016,0,0,1-.468-2.8,1.833,1.833,0,0,1,1.516-.671,2.267,2.267,0,0,1,1.326.5c.129.1.306.237.421.336a15.887,15.887,0,0,1,1.253,1.33,17.75,17.75,0,0,0,2.564,2.317,1.5,1.5,0,0,0,1.13.11q.34.248.686.488a24.468,24.468,0,0,1,12.429-7.1,24.811,24.811,0,0,1,3.439-.529l.045-.8a2.073,2.073,0,0,0,.617-.984A17.791,17.791,0,0,0,57.8,29.5a15.984,15.984,0,0,1-.26-1.809c0-.138,0-.329,0-.487,0-.018,0-.036,0-.053a1.912,1.912,0,1,1,3.8,0c0,.167.01.388,0,.541a15.825,15.825,0,0,1-.261,1.809,17.817,17.817,0,0,0-.215,3.451,1.507,1.507,0,0,0,.622.951c.007.137.029.6.046.849a24.927,24.927,0,0,1,15.789,7.629l.724-.517a2.114,2.114,0,0,0,1.154-.125,17.817,17.817,0,0,0,2.564-2.32,15.776,15.776,0,0,1,1.256-1.33c.117-.1.293-.234.422-.336a1.912,1.912,0,1,1,2.37,2.974c-.128.1-.3.247-.419.338a15.818,15.818,0,0,1-1.581.922,17.8,17.8,0,0,0-2.829,1.988,1.5,1.5,0,0,0-.357,1.077c-.106.1-.478.427-.675.605a24.715,24.715,0,0,1,3.963,17.119l.768.224a2.138,2.138,0,0,0,.82.825,17.786,17.786,0,0,0,3.411.562,16.063,16.063,0,0,1,1.824.146c.16.029.391.093.554.131a1.909,1.909,0,1,1-.846,3.706l-.028,0c-.013,0-.024-.01-.037-.014-.157-.034-.354-.068-.491-.1a15.836,15.836,0,0,1-1.706-.659,17.792,17.792,0,0,0-3.318-.976,1.5,1.5,0,0,0-1.065.4q-.406-.077-.813-.142A24.752,24.752,0,0,1,72.029,80.656Z" transform="translate(-5.072 -4.918)" fill="#326ce5"/><path d="M104.07,63.348,95.5,26.139a6.687,6.687,0,0,0-3.587-4.462L57.243,5.123a6.682,6.682,0,0,0-5.756,0L16.816,21.687a6.687,6.687,0,0,0-3.588,4.46L4.677,63.358a6.611,6.611,0,0,0,.9,5.041c.118.18.242.355.378.524l24,29.838a6.751,6.751,0,0,0,5.183,2.473l38.483-.009a6.754,6.754,0,0,0,5.183-2.47l23.989-29.841a6.634,6.634,0,0,0,1.281-5.565ZM99.925,65.09a6.165,6.165,0,0,1-.224.777,5.942,5.942,0,0,1-.951,1.706L77.432,94.091l-.67.835a6,6,0,0,1-1.46,1.291,6.285,6.285,0,0,1-.664.37q-.231.107-.471.194a6.253,6.253,0,0,1-.623.2,6.074,6.074,0,0,1-.9.171,5.853,5.853,0,0,1-.635.037L37.081,97.2h-.343a5.994,5.994,0,0,1-1.545-.213,6.276,6.276,0,0,1-1.737-.757,6.05,6.05,0,0,1-1.161-.961c-.105-.111-.211-.219-.306-.338l-22-27.348q-.184-.232-.345-.48a5.905,5.905,0,0,1-.605-1.229,6.086,6.086,0,0,1-.221-.775,6,6,0,0,1,0-2.618l7.839-34.106a6.129,6.129,0,0,1,3.288-4.088L51.727,9.1A6.124,6.124,0,0,1,57,9.1L88.785,24.279a6.13,6.13,0,0,1,3.287,4.089l7.852,34.106a5.986,5.986,0,0,1,0,2.617Z" transform="translate(0 0)" fill="#fff"/><path d="M106.146,78.826c-.162-.037-.394-.1-.553-.131a16.068,16.068,0,0,0-1.824-.147,17.786,17.786,0,0,1-3.412-.56,2.139,2.139,0,0,1-.82-.826l-.768-.224A24.715,24.715,0,0,0,94.808,59.82c.2-.178.569-.508.674-.6a1.5,1.5,0,0,1,.357-1.077,17.8,17.8,0,0,1,2.829-1.988,15.817,15.817,0,0,0,1.581-.922c.123-.091.29-.235.419-.338A1.912,1.912,0,1,0,98.3,51.916c-.13.1-.306.237-.422.337a15.776,15.776,0,0,0-1.257,1.33,17.817,17.817,0,0,1-2.564,2.32,2.114,2.114,0,0,1-1.154.125l-.724.517a24.927,24.927,0,0,0-15.789-7.629c-.018-.253-.039-.711-.046-.849a1.507,1.507,0,0,1-.621-.951,17.816,17.816,0,0,1,.215-3.451,15.824,15.824,0,0,0,.259-1.808c.006-.153,0-.376,0-.541a1.912,1.912,0,1,0-3.8,0c0,.018,0,.035,0,.053,0,.158-.009.349,0,.487a15.99,15.99,0,0,0,.26,1.81,17.791,17.791,0,0,1,.212,3.45,2.074,2.074,0,0,1-.617.983l-.045.8a24.81,24.81,0,0,0-3.439.529,24.468,24.468,0,0,0-12.427,7.1q-.347-.239-.688-.488a1.5,1.5,0,0,1-1.129-.11A17.75,17.75,0,0,1,51.95,53.62,15.889,15.889,0,0,0,50.7,52.29c-.116-.1-.293-.234-.423-.338a2.267,2.267,0,0,0-1.326-.5,1.832,1.832,0,0,0-1.516.672,2.016,2.016,0,0,0,.468,2.8l.029.021c.124.1.278.232.393.316a15.891,15.891,0,0,0,1.577.923,17.742,17.742,0,0,1,2.829,1.988,2.114,2.114,0,0,1,.383,1.1l.609.544A24.614,24.614,0,0,0,49.84,76.977l-.8.232a2.63,2.63,0,0,1-.818.823,17.752,17.752,0,0,1-3.409.562,15.893,15.893,0,0,0-1.825.147c-.146.027-.349.078-.508.118l-.017,0-.027.008a1.909,1.909,0,1,0,.845,3.707l.028,0c.013,0,.023-.009.036-.011.157-.036.354-.073.492-.111a16.042,16.042,0,0,0,1.706-.654,17.814,17.814,0,0,1,3.316-.976,2.109,2.109,0,0,1,1.093.386l.829-.142a24.753,24.753,0,0,0,10.97,13.7l-.347.829a1.888,1.888,0,0,1,.17,1.076,18.582,18.582,0,0,1-1.722,3.094,15.858,15.858,0,0,0-1.02,1.52c-.076.143-.172.363-.244.513a1.91,1.91,0,1,0,3.435,1.63l0,0v0c.072-.149.174-.344.235-.483a15.73,15.73,0,0,0,.549-1.743A13.3,13.3,0,0,1,64.29,97.77a1.546,1.546,0,0,1,.82-.4l.431-.78a24.616,24.616,0,0,0,17.553.045c.121.215.346.627.406.731a1.5,1.5,0,0,1,.971.59,17.715,17.715,0,0,1,1.306,3.2,15.9,15.9,0,0,0,.552,1.743c.062.141.162.338.235.488A1.911,1.911,0,1,0,90,101.76c-.073-.15-.173-.37-.248-.512a15.8,15.8,0,0,0-1.02-1.516,17.745,17.745,0,0,1-1.687-3.02,1.494,1.494,0,0,1,.146-1.122,6.544,6.544,0,0,1-.317-.768A24.752,24.752,0,0,0,97.842,81.029c.246.039.675.114.814.142a1.5,1.5,0,0,1,1.064-.4,17.792,17.792,0,0,1,3.317.976,15.834,15.834,0,0,0,1.707.659c.137.036.334.07.491.105l.037.013.027,0a1.909,1.909,0,1,0,.846-3.707ZM88.073,59.452l-8.129,5.763-.028-.014a1.678,1.678,0,0,1-2.665-1.279l-.009,0-.565-9.962a19.763,19.763,0,0,1,11.4,5.5ZM72.759,70.371h3.059l1.9,2.378-.682,2.966-2.747,1.322-2.756-1.325-.683-2.967ZM69.881,54.3a20.132,20.132,0,0,1,2.029-.349l-.566,9.977-.041.02a1.677,1.677,0,0,1-2.661,1.285l-.016.009-8.182-5.8A19.59,19.59,0,0,1,69.881,54.3Zm-12.4,8.87,7.47,6.681-.008.041a1.677,1.677,0,0,1-.659,2.882l-.008.032L54.7,75.573a19.584,19.584,0,0,1,2.78-12.4Zm10,17.748-3.8,9.193a19.694,19.694,0,0,1-7.9-9.892l9.817-1.668.017.022a1.647,1.647,0,0,1,.329-.029,1.677,1.677,0,0,1,1.516,2.337ZM78.709,92.744a19.667,19.667,0,0,1-10.733-.551L72.8,83.462h.008a1.679,1.679,0,0,1,2.955,0H75.8l4.84,8.745q-.942.315-1.935.54Zm6.238-2.592L81.1,80.866l.012-.017a1.679,1.679,0,0,1,.813-2.174,1.661,1.661,0,0,1,.642-.167,1.618,1.618,0,0,1,.385.028l.017-.021,9.9,1.674a19.619,19.619,0,0,1-7.93,9.963Zm8.97-14.612-9.623-2.772-.009-.041a1.679,1.679,0,0,1-.658-2.882l0-.019,7.428-6.648a19.956,19.956,0,0,1,2.865,12.363Z" transform="translate(-19.92 -19.084)" fill="#fff"/></g><g transform="translate(572.887 69.349)"><path d="M87.552,85.92a.922.922,0,0,0-.219-.017.946.946,0,0,0-.366.095.956.956,0,0,0-.463,1.238l-.007.009,2.188,5.286A11.169,11.169,0,0,0,93.2,86.861l-5.638-.953Zm-8.773.749a.954.954,0,0,0-.915-.743.938.938,0,0,0-.188.017l-.009-.012-5.589.949a11.211,11.211,0,0,0,4.5,5.631l2.166-5.234-.017-.021a.945.945,0,0,0,.053-.588Zm4.681,2.053a.954.954,0,0,0-1.682,0h0l-2.749,4.97a11.2,11.2,0,0,0,6.11.314q.564-.128,1.1-.308L83.48,88.722Zm8.7-11.546-4.229,3.785,0,.012a.956.956,0,0,0,.375,1.641l.005.023,5.478,1.578a11.36,11.36,0,0,0-1.631-7.038ZM84.3,77.6a.956.956,0,0,0,1.517.729l.017.007,4.627-3.281a11.251,11.251,0,0,0-6.488-3.128L84.3,77.6Zm-4.9.749a.954.954,0,0,0,1.515-.731l.024-.011.321-5.68a11.466,11.466,0,0,0-1.155.2,11.152,11.152,0,0,0-5.372,2.927l4.658,3.3Zm-2.483,4.292A.954.954,0,0,0,77.3,81l0-.023-4.252-3.8a11.149,11.149,0,0,0-1.583,7.058l5.451-1.573Zm4.13,1.671,1.569.754,1.564-.753.388-1.688-1.082-1.354H81.747l-1.086,1.352Z" transform="translate(-49.723 -50.149)" fill="#326ce5"/><path d="M65.693,44.146l-4.47-19.416A3.49,3.49,0,0,0,59.352,22.4L41.259,13.764a3.487,3.487,0,0,0-3,0l-18.09,8.643a3.489,3.489,0,0,0-1.872,2.328L13.831,44.15a3.416,3.416,0,0,0,0,1.491,3.465,3.465,0,0,0,.126.441,3.361,3.361,0,0,0,.345.7c.061.094.126.185.2.273L27.018,62.622c.055.068.115.13.175.192a3.444,3.444,0,0,0,.66.547,3.573,3.573,0,0,0,.99.43,3.412,3.412,0,0,0,.88.121h.195l19.885,0a3.332,3.332,0,0,0,.362-.021,3.456,3.456,0,0,0,.51-.1,3.561,3.561,0,0,0,.354-.113c.091-.035.181-.069.268-.111a3.575,3.575,0,0,0,.379-.211,3.413,3.413,0,0,0,.831-.735l.382-.475,12.135-15.1a3.383,3.383,0,0,0,.541-.971,3.505,3.505,0,0,0,.128-.442,3.408,3.408,0,0,0,0-1.491ZM46.926,51.7a3.724,3.724,0,0,0,.18.437.85.85,0,0,0-.084.639,10.1,10.1,0,0,0,.96,1.719,9,9,0,0,1,.581.863c.044.081.1.206.142.291a1.088,1.088,0,1,1-1.958.925c-.041-.085-.1-.2-.134-.278A9.052,9.052,0,0,1,46.3,55.3a10.084,10.084,0,0,0-.743-1.821A.856.856,0,0,0,45,53.146c-.035-.06-.163-.3-.232-.416a14.013,14.013,0,0,1-9.993-.026l-.245.444a.88.88,0,0,0-.467.228,7.573,7.573,0,0,0-.838,1.945,8.954,8.954,0,0,1-.312.992c-.035.08-.093.191-.134.275v0l0,0a1.087,1.087,0,1,1-1.955-.928c.041-.086.1-.21.139-.291a9.026,9.026,0,0,1,.58-.865,10.578,10.578,0,0,0,.98-1.762,1.075,1.075,0,0,0-.1-.612l.2-.472a14.091,14.091,0,0,1-6.244-7.8l-.472.08a1.2,1.2,0,0,0-.623-.219,10.14,10.14,0,0,0-1.887.555,9.13,9.13,0,0,1-.972.372c-.078.022-.191.043-.28.063l-.021.007-.017,0a1.087,1.087,0,1,1-.481-2.11l.016,0,.009,0c.091-.021.207-.051.289-.067a9.05,9.05,0,0,1,1.039-.084,10.106,10.106,0,0,0,1.941-.319,1.5,1.5,0,0,0,.465-.47l.453-.132a14.012,14.012,0,0,1,2.21-9.768l-.347-.309a1.2,1.2,0,0,0-.218-.625,10.1,10.1,0,0,0-1.61-1.131,9.044,9.044,0,0,1-.9-.525c-.066-.049-.153-.123-.224-.181l-.016-.011a1.148,1.148,0,0,1-.266-1.6,1.043,1.043,0,0,1,.863-.382,1.291,1.291,0,0,1,.755.285c.074.058.174.135.24.191a9.044,9.044,0,0,1,.713.757,10.1,10.1,0,0,0,1.46,1.319.855.855,0,0,0,.643.062q.193.141.39.278a13.929,13.929,0,0,1,7.075-4.042,14.125,14.125,0,0,1,1.958-.3l.026-.458a1.18,1.18,0,0,0,.351-.56,10.127,10.127,0,0,0-.121-1.964,9.1,9.1,0,0,1-.148-1.03c0-.079,0-.188,0-.277,0-.01,0-.021,0-.03a1.088,1.088,0,1,1,2.166,0c0,.095.006.221,0,.308a9.007,9.007,0,0,1-.149,1.03,10.142,10.142,0,0,0-.123,1.964.858.858,0,0,0,.354.541c0,.078.017.339.026.483a14.191,14.191,0,0,1,8.988,4.343l.412-.294a1.2,1.2,0,0,0,.657-.071,10.143,10.143,0,0,0,1.46-1.321,8.982,8.982,0,0,1,.715-.757c.066-.057.167-.133.24-.191a1.088,1.088,0,1,1,1.349,1.693c-.073.059-.169.141-.238.192a9,9,0,0,1-.9.525,10.133,10.133,0,0,0-1.61,1.131.856.856,0,0,0-.2.613c-.06.055-.272.243-.384.345A14.07,14.07,0,0,1,53.7,41.517l.437.127a1.217,1.217,0,0,0,.467.47,10.125,10.125,0,0,0,1.942.32,9.144,9.144,0,0,1,1.038.083c.091.017.223.053.316.074a1.087,1.087,0,1,1-.482,2.11l-.016,0-.021-.008c-.089-.019-.2-.039-.28-.059a9.015,9.015,0,0,1-.971-.375,10.129,10.129,0,0,0-1.889-.555.856.856,0,0,0-.606.225q-.231-.044-.463-.081A14.091,14.091,0,0,1,46.926,51.7Z" transform="translate(-6.864 -6.656)" fill="#326ce5"/><path d="M61.19,37.988,56.313,16.806a3.807,3.807,0,0,0-2.042-2.54L34.532,4.842a3.8,3.8,0,0,0-3.277,0L11.518,14.272A3.807,3.807,0,0,0,9.475,16.81L4.607,37.994a3.763,3.763,0,0,0,.512,2.87c.067.1.138.2.215.3L19,58.148a3.843,3.843,0,0,0,2.95,1.408l21.908-.005A3.845,3.845,0,0,0,46.8,58.145L60.46,41.157a3.777,3.777,0,0,0,.729-3.168Zm-2.36.992a3.51,3.51,0,0,1-.128.442,3.383,3.383,0,0,1-.541.971L46.025,55.49l-.381.475a3.413,3.413,0,0,1-.831.735,3.577,3.577,0,0,1-.378.211q-.132.061-.268.11a3.559,3.559,0,0,1-.355.114,3.457,3.457,0,0,1-.51.1,3.333,3.333,0,0,1-.362.021l-19.885,0h-.195a3.412,3.412,0,0,1-.88-.121,3.573,3.573,0,0,1-.989-.431,3.444,3.444,0,0,1-.661-.547c-.06-.063-.12-.125-.174-.192L7.633,40.4q-.1-.132-.2-.274a3.362,3.362,0,0,1-.345-.7,3.465,3.465,0,0,1-.126-.441,3.416,3.416,0,0,1,0-1.49L11.43,18.078A3.489,3.489,0,0,1,13.3,15.751l18.09-8.643a3.487,3.487,0,0,1,3,0l18.093,8.639a3.49,3.49,0,0,1,1.871,2.328l4.47,19.416a3.408,3.408,0,0,1,0,1.49Z" transform="translate(0 0)" fill="#fff"/><path d="M77.991,61.763c-.092-.021-.224-.058-.315-.074a9.146,9.146,0,0,0-1.038-.084,10.125,10.125,0,0,1-1.942-.319,1.217,1.217,0,0,1-.467-.47l-.437-.127a14.069,14.069,0,0,0-2.255-9.745c.112-.1.324-.289.384-.344a.856.856,0,0,1,.2-.613,10.133,10.133,0,0,1,1.61-1.131,9,9,0,0,0,.9-.525c.07-.052.165-.134.238-.192a1.088,1.088,0,1,0-1.349-1.693c-.074.058-.174.135-.24.192a8.982,8.982,0,0,0-.716.757,10.143,10.143,0,0,1-1.46,1.321,1.2,1.2,0,0,1-.657.071l-.412.294a14.191,14.191,0,0,0-8.988-4.343c-.01-.144-.022-.4-.026-.483a.858.858,0,0,1-.353-.541,10.142,10.142,0,0,1,.123-1.964,9.009,9.009,0,0,0,.148-1.029c0-.087,0-.214,0-.308a1.088,1.088,0,1,0-2.166,0c0,.01,0,.02,0,.03,0,.09-.005.2,0,.277a9.1,9.1,0,0,0,.148,1.03,10.128,10.128,0,0,1,.121,1.964,1.181,1.181,0,0,1-.352.56l-.026.458a14.123,14.123,0,0,0-1.958.3,13.929,13.929,0,0,0-7.075,4.042q-.2-.136-.392-.278a.855.855,0,0,1-.643-.062,10.1,10.1,0,0,1-1.46-1.319,9.046,9.046,0,0,0-.712-.757c-.066-.056-.167-.133-.241-.192a1.291,1.291,0,0,0-.755-.285,1.043,1.043,0,0,0-.863.382,1.148,1.148,0,0,0,.266,1.6l.017.012c.071.058.158.132.224.18a9.045,9.045,0,0,0,.9.525,10.1,10.1,0,0,1,1.61,1.132,1.2,1.2,0,0,1,.218.624l.347.31a14.012,14.012,0,0,0-2.209,9.768l-.453.132a1.5,1.5,0,0,1-.465.469,10.106,10.106,0,0,1-1.941.32,9.046,9.046,0,0,0-1.039.084c-.083.015-.2.045-.289.067l-.009,0-.015,0a1.087,1.087,0,1,0,.481,2.11l.016,0,.021-.006c.089-.021.2-.042.28-.063a9.131,9.131,0,0,0,.971-.372,10.141,10.141,0,0,1,1.888-.555,1.2,1.2,0,0,1,.622.22l.472-.081a14.091,14.091,0,0,0,6.245,7.8l-.2.472a1.074,1.074,0,0,1,.1.612,10.578,10.578,0,0,1-.98,1.761,9.027,9.027,0,0,0-.581.865c-.043.082-.1.207-.139.292a1.087,1.087,0,1,0,1.955.928l0,0v0c.041-.085.1-.2.134-.275a8.955,8.955,0,0,0,.313-.992,7.573,7.573,0,0,1,.838-1.945.88.88,0,0,1,.467-.228l.246-.444a14.013,14.013,0,0,0,9.992.025c.069.123.2.357.231.416a.856.856,0,0,1,.553.336,10.085,10.085,0,0,1,.744,1.821,9.05,9.05,0,0,0,.314.992c.035.08.092.192.134.278a1.088,1.088,0,1,0,1.958-.925c-.041-.085-.1-.21-.141-.291a9,9,0,0,0-.581-.863,10.1,10.1,0,0,1-.96-1.719.85.85,0,0,1,.083-.639,3.725,3.725,0,0,1-.18-.437,14.091,14.091,0,0,0,6.242-7.852c.14.022.384.065.463.081a.856.856,0,0,1,.606-.225,10.128,10.128,0,0,1,1.888.555,9.015,9.015,0,0,0,.972.375c.078.021.19.04.28.06l.021.007.015,0a1.087,1.087,0,1,0,.482-2.11ZM67.7,50.734l-4.628,3.281-.016-.008a.955.955,0,0,1-1.517-.728l-.005,0-.321-5.671A11.251,11.251,0,0,1,67.7,50.734ZM58.985,56.95h1.742L61.809,58.3l-.388,1.688-1.564.753-1.569-.754L57.9,58.3ZM57.347,47.8a11.46,11.46,0,0,1,1.155-.2l-.322,5.68-.024.011a.954.954,0,0,1-1.515.732l-.009.005-4.658-3.3A11.152,11.152,0,0,1,57.347,47.8Zm-7.061,5.049,4.252,3.8,0,.023a.954.954,0,0,1-.375,1.641l0,.018L48.7,59.912a11.149,11.149,0,0,1,1.583-7.058Zm5.694,10.1L53.814,68.19a11.211,11.211,0,0,1-4.5-5.631L54.9,61.61l.009.013a.938.938,0,0,1,.187-.017.954.954,0,0,1,.863,1.33Zm6.393,6.73a11.2,11.2,0,0,1-6.11-.314l2.749-4.97h0a.956.956,0,0,1,1.682,0h.021l2.756,4.978q-.536.179-1.1.308Zm3.551-1.476-2.188-5.287.007-.009a.956.956,0,0,1,.463-1.237.945.945,0,0,1,.366-.095.921.921,0,0,1,.219.016l.009-.012,5.639.953a11.168,11.168,0,0,1-4.514,5.671Zm5.106-8.318-5.478-1.578-.005-.023a.956.956,0,0,1-.375-1.641l0-.011L69.4,52.856a11.361,11.361,0,0,1,1.631,7.038Z" transform="translate(-26.96 -25.828)" fill="#fff"/></g><path d="M825.085,358.048a8.893,8.893,0,0,1,7.386,11.463l15.615,13.007-5.59,11.417L820.7,375.257a8.942,8.942,0,0,1,4.382-17.209Z" transform="translate(-143.5 -229.066)" fill="#a0616a"/><path d="M838.3,372.013l33.446,23.567,23.309-6.737L925.005,402.8l-.216.412c-.142.27-3.584,6.616-14.164,6.776l-42.812,10.054L824.537,381Z" transform="translate(-143.5 -229.066)" fill="#3f3d56"/><path d="M756,429.531H744.371l-5.531-44.85H756Z" fill="#a0616a"/><path d="M736.066,426.208H758.49v14.119H721.947a14.119,14.119,0,0,1,14.119-14.119Z" fill="#2f2e41"/><path d="M802.472,429.531H790.844l-5.531-44.85h17.161Z" fill="#a0616a"/><path d="M782.539,426.208h22.424v14.119H768.42a14.119,14.119,0,0,1,14.119-14.119Z" fill="#2f2e41"/><path d="M806.607,265.827l-.948,66.39-.949,87.255-20.865-1.9-10.433-120.45-13.278,120.45H738.593l-2.17-121.4,7.588-26.556Z" fill="#2f2e41"/><path d="M885.431,499.091l-3.179-.138,14.765-81.336-6.045-24.584a5.38,5.38,0,0,1,3.335-6.321l10.877-4.079,3.843-10.568,30.319,3.267.746,8.259c3.285,1.054,30.341,10.064,28.474,20.331-1.842,10.134-12.721,42.015-13.274,43.631l-1.905,45.722-.234.117c-.282.141-21.18,10.416-43.883,10.415a57.723,57.723,0,0,1-23.837-4.717Z" transform="translate(-143.5 -229.066)" fill="#3f3d56"/><circle cx="21.83" cy="21.83" r="21.83" transform="translate(757.667 94.111)" fill="#a0616a"/><path d="M940.679,366.138c-4.16,4.432-11.886,2.053-12.428-4a7.316,7.316,0,0,1,.009-1.413c.28-2.682,1.829-5.116,1.458-7.948a4.169,4.169,0,0,0-.763-1.951c-3.315-4.439-11.1,1.986-14.226-2.033-1.918-2.464.337-6.344-1.136-9.1-1.943-3.635-7.7-1.842-11.308-3.833-4.016-2.215-3.775-8.376-1.132-12.124,3.224-4.57,8.876-7.009,14.458-7.36s11.125,1.157,16.336,3.188c5.921,2.307,11.792,5.5,15.436,10.7,4.431,6.331,4.857,14.843,2.641,22.246C948.677,357.018,944.077,362.519,940.679,366.138Z" transform="translate(-143.5 -229.066)" fill="#2f2e41"/><path d="M560.665,423.5l3.243-8.342-30.632-16.479-4.787,12.312Z" fill="#ffb8b8"/><path d="M721.541,630.8A11.227,11.227,0,0,0,707,637.2l-2.188,5.623-3.373,8.68-.825,2.128,10.809,4.2,10.455-26.9Z" transform="translate(-143.5 -229.066)" fill="#2f2e41"/><path d="M701.443,636.512l-1.411,3.74-3.52,9.336-.084.234c-8.968,1.152-18.8-1.107-27.894-4.616a113.371,113.371,0,0,1-10.676-4.764c-5.143-2.6-9.747-5.341-13.42-7.686-5.531-3.55-8.95-6.215-8.95-6.215s-.9.816-2.538,2.216c-2.191,1.875-5.693,4.8-10.128,8.249q-2.538,1.986-5.45,4.154c-14.309,10.614-32.673-17.708-32.673-17.708s5.165-3.288,6.514-3.927c4.345-2.055,14.551-6.906,23.357-11.216,4.537-2.224,8.7-4.309,11.489-5.791,9.889-5.265,22.181,4.7,22.181,4.7Z" transform="translate(-143.5 -229.066)" fill="#2f2e41"/><path d="M701.443,636.512l-1.411,3.74-3.52,9.336-.084.234c-8.968,1.152-18.8-1.107-27.894-4.616a113.371,113.371,0,0,1-10.676-4.764c-5.143-2.6-9.747-5.341-13.42-7.686-5.531-3.55-8.95-6.215-8.95-6.215s-.9.816-2.538,2.216c-2.191,1.875-5.693,4.8-10.128,8.249q-2.538,1.986-5.45,4.154c-14.309,10.614-32.673-17.708-32.673-17.708s5.165-3.288,6.514-3.927c4.345-2.055,14.551-6.906,23.357-11.216,4.537-2.224,8.7-4.309,11.489-5.791,9.889-5.265,22.181,4.7,22.181,4.7Z" transform="translate(-143.5 -229.066)" opacity="0.14"/><path d="M558.313,558H515.971a3.289,3.289,0,0,1-3.285-3.285V536.46a24.456,24.456,0,0,1,48.912,0v18.251A3.289,3.289,0,0,1,558.313,558Z" transform="translate(-143.5 -229.066)" fill="#2f2e41"/><path d="M598.58,580.92a6.846,6.846,0,0,0-5.246,9.092L581.82,600.6l4.729,8.566L602.6,593.985a6.883,6.883,0,0,0-4.019-13.065Z" transform="translate(-143.5 -229.066)" fill="#ffb8b8"/><path d="M563.935,629.067q-.78,0-1.563-.067a18.4,18.4,0,0,1-14.818-9.9l-18.446-35.5a10.187,10.187,0,0,1,17.615-10.195l17.018,38.183L586.9,592.775l13.407,5.219-22.643,25A18.6,18.6,0,0,1,563.935,629.067Z" transform="translate(-143.5 -229.066)" fill="#326ce5"/><path d="M558.077,435.233l3.874-8.068-29.275-18.784-5.718,11.908Z" fill="#ffb8b8"/><path d="M720.574,643.936a11.227,11.227,0,0,0-14.987,5.263l-2.613,5.439-4.03,8.4-.986,2.059,10.454,5.023L720.9,644.1Z" transform="translate(-143.5 -229.066)" fill="#2f2e41"/><path d="M700.1,648.083,698.4,651.7l-4.227,9.038-.1.226c-9.03.46-18.659-2.548-27.456-6.745a113.373,113.373,0,0,1-10.279-5.57c-4.928-2.986-9.308-6.074-12.79-8.695-5.242-3.964-8.446-6.884-8.446-6.884s-.964.745-2.7,2.015c-2.329,1.7-6.045,4.351-10.731,7.446q-2.683,1.785-5.753,3.723c-15.083,9.483-36.531,21.032-54.774,23.47-32.041,4.285-24.5-38.473-24.5-38.473l25.5-13.243,10.826,2.2,12.053,2.438,4.271.869s.81-.307,2.2-.84c4.49-1.716,15.039-5.767,24.149-9.388,4.694-1.869,9-3.628,11.9-4.891,10.264-4.49,21.755,6.388,21.755,6.388Z" transform="translate(-143.5 -229.066)" fill="#2f2e41"/><path d="M489.981,670.749a6.846,6.846,0,0,0,4.769-9.351L505.7,650.227l-5.165-8.31-15.243,15.992a6.883,6.883,0,0,0,4.689,12.84Z" transform="translate(-143.5 -229.066)" fill="#ffb8b8"/><circle cx="17.073" cy="17.073" r="17.073" transform="translate(382.564 295.6)" fill="#ffb8b8"/><path d="M520.926,589.13,535.8,631.294l-.089.148c-2.069,3.42-2.745,6.178-1.955,7.977a3.476,3.476,0,0,0,2.2,1.9l35.194-24.6-1.232-9.859.069-.11c3.4-5.443,4.5-10.372,3.274-14.65a14.139,14.139,0,0,0-6.713-8.1l-.123-.1-17.554-21.364-23.465,4.169Z" transform="translate(-143.5 -229.066)" fill="#326ce5"/><path d="M498.31,663.137l-9.963-12.262,24.018-39.648,11.2-34.613.347.112-.347-.112a13.9,13.9,0,1,1,24.794,12l-20.558,30.8Z" transform="translate(-143.5 -229.066)" fill="#326ce5"/><path d="M567.384,538.285H541.493l-.266-3.717-1.327,3.717h-3.987l-.526-7.367-2.631,7.367h-7.714v-.365a19.368,19.368,0,0,1,19.346-19.346h3.65a19.368,19.368,0,0,1,19.346,19.346Z" transform="translate(-143.5 -229.066)" fill="#2f2e41"/><path d="M541.281,561.4a3.352,3.352,0,0,1-.581-.051l-18.958-3.345V526.674h20.87l-.517.6c-7.189,8.384-1.773,21.979,2.1,29.336a3.237,3.237,0,0,1-.257,3.436A3.272,3.272,0,0,1,541.281,561.4Z" transform="translate(-143.5 -229.066)" fill="#2f2e41"/><path d="M681.028,276.2v44.141H485.481l-28.237,33.879,3.225-33.879H446.73V276.2Z" fill="#f0f0f0"/><circle cx="8" cy="8" r="8" transform="translate(520.028 290.203)" fill="#fff"/><circle cx="8" cy="8" r="8" transform="translate(493.028 290.203)" fill="#fff"/><circle cx="8" cy="8" r="8" transform="translate(466.028 290.203)" fill="#fff"/><g transform="translate(324.267 83.139)"><path d="M91.835,89.63a1.165,1.165,0,0,0-.278-.021,1.2,1.2,0,0,0-.463.12,1.209,1.209,0,0,0-.585,1.566l-.008.012L93.269,98a14.13,14.13,0,0,0,5.711-7.174l-7.133-1.206Zm-11.1.948a1.208,1.208,0,0,0-1.158-.939,1.187,1.187,0,0,0-.238.021l-.012-.015-7.071,1.2a14.183,14.183,0,0,0,5.693,7.124l2.74-6.621-.021-.026A1.2,1.2,0,0,0,80.735,90.578Zm5.922,2.6a1.207,1.207,0,0,0-2.128,0h-.006l-3.477,6.288a14.164,14.164,0,0,0,7.73.4q.713-.162,1.393-.389l-3.486-6.3ZM97.666,78.568l-5.35,4.789,0,.015a1.209,1.209,0,0,0,.474,2.076l.006.029,6.93,2a14.372,14.372,0,0,0-2.063-8.9Zm-9.94.536a1.209,1.209,0,0,0,1.919.922l.021.009,5.854-4.151a14.234,14.234,0,0,0-8.208-3.957l.407,7.175Zm-6.2.948a1.208,1.208,0,0,0,1.916-.925l.03-.014.407-7.186a14.506,14.506,0,0,0-1.461.252,14.109,14.109,0,0,0-6.8,3.7l5.893,4.177Zm-3.141,5.43a1.207,1.207,0,0,0,.475-2.076l.006-.028-5.38-4.812a14.105,14.105,0,0,0-2,8.93l6.9-1.99ZM83.61,87.6l1.985.954,1.979-.952.491-2.136L86.7,83.75h-2.2l-1.373,1.71Z" transform="translate(-38.937 -39.513)" fill="#fff"/><path d="M79.466,52.292,73.811,27.728a4.415,4.415,0,0,0-2.367-2.945L48.553,13.854a4.411,4.411,0,0,0-3.8,0L21.867,24.789A4.414,4.414,0,0,0,19.5,27.734L13.853,52.3a4.322,4.322,0,0,0,0,1.886,4.384,4.384,0,0,0,.159.558,4.252,4.252,0,0,0,.436.885c.078.118.159.234.248.345l15.842,19.7c.069.086.145.164.221.243a4.357,4.357,0,0,0,.836.692,4.519,4.519,0,0,0,1.252.544,4.316,4.316,0,0,0,1.113.154h.246l25.158-.006a4.218,4.218,0,0,0,.458-.027,4.373,4.373,0,0,0,.646-.123A4.5,4.5,0,0,0,60.914,77c.115-.044.229-.088.339-.141a4.526,4.526,0,0,0,.48-.267,4.318,4.318,0,0,0,1.051-.93l.483-.6,15.353-19.1a4.28,4.28,0,0,0,.684-1.229,4.435,4.435,0,0,0,.162-.56,4.311,4.311,0,0,0,0-1.886ZM55.723,61.846a4.712,4.712,0,0,0,.228.553,1.076,1.076,0,0,0-.106.808,12.78,12.78,0,0,0,1.215,2.175,11.381,11.381,0,0,1,.735,1.092c.055.1.127.261.179.369A1.376,1.376,0,1,1,55.5,68.013c-.052-.107-.125-.25-.169-.351a11.449,11.449,0,0,1-.4-1.256,12.758,12.758,0,0,0-.94-2.3,1.083,1.083,0,0,0-.7-.424c-.044-.076-.206-.373-.293-.527a17.728,17.728,0,0,1-12.642-.032l-.31.562a1.113,1.113,0,0,0-.59.288,9.581,9.581,0,0,0-1.061,2.461,11.329,11.329,0,0,1-.4,1.256c-.044.1-.117.242-.169.348v0l0,0a1.376,1.376,0,1,1-2.473-1.174c.052-.109.121-.266.175-.368a11.419,11.419,0,0,1,.734-1.095,13.383,13.383,0,0,0,1.24-2.229,1.359,1.359,0,0,0-.122-.775l.249-.6a17.827,17.827,0,0,1-7.9-9.863l-.6.1a1.519,1.519,0,0,0-.788-.278,12.829,12.829,0,0,0-2.388.7,11.552,11.552,0,0,1-1.229.471c-.1.027-.242.055-.355.079-.009,0-.017.007-.026.009l-.021,0a1.375,1.375,0,1,1-.608-2.669l.02,0,.012,0c.115-.027.261-.065.366-.085a11.451,11.451,0,0,1,1.315-.106,12.785,12.785,0,0,0,2.455-.4,1.894,1.894,0,0,0,.589-.594l.574-.167a17.727,17.727,0,0,1,2.8-12.358l-.439-.391a1.522,1.522,0,0,0-.275-.791,12.778,12.778,0,0,0-2.037-1.431,11.442,11.442,0,0,1-1.136-.664c-.083-.062-.193-.155-.284-.229l-.02-.014a1.452,1.452,0,0,1-.337-2.02,1.32,1.32,0,0,1,1.092-.483,1.633,1.633,0,0,1,.955.36c.093.073.221.171.3.242a11.442,11.442,0,0,1,.9.958,12.784,12.784,0,0,0,1.847,1.669,1.082,1.082,0,0,0,.814.079q.245.179.494.351a17.622,17.622,0,0,1,8.951-5.114,17.87,17.87,0,0,1,2.477-.381l.032-.579a1.493,1.493,0,0,0,.445-.709A12.813,12.813,0,0,0,45.475,25a11.511,11.511,0,0,1-.187-1.3c0-.1,0-.237,0-.351,0-.013,0-.026,0-.038a1.377,1.377,0,1,1,2.74,0c0,.12.007.279,0,.39a11.4,11.4,0,0,1-.188,1.3,12.833,12.833,0,0,0-.155,2.485,1.085,1.085,0,0,0,.448.685c0,.1.021.429.033.612A17.953,17.953,0,0,1,59.54,34.278l.521-.372a1.522,1.522,0,0,0,.831-.09,12.831,12.831,0,0,0,1.847-1.671,11.363,11.363,0,0,1,.9-.958c.084-.072.211-.169.3-.242a1.377,1.377,0,1,1,1.707,2.142c-.092.074-.213.178-.3.243a11.39,11.39,0,0,1-1.138.664,12.819,12.819,0,0,0-2.037,1.431,1.083,1.083,0,0,0-.257.776c-.076.07-.344.307-.486.436a17.8,17.8,0,0,1,2.854,12.329l.553.161a1.54,1.54,0,0,0,.591.594,12.81,12.81,0,0,0,2.457.4,11.57,11.57,0,0,1,1.313.105c.115.021.282.067.4.094a1.375,1.375,0,1,1-.61,2.669l-.02,0c-.009,0-.018-.007-.027-.009-.113-.025-.255-.049-.354-.075a11.407,11.407,0,0,1-1.229-.475,12.814,12.814,0,0,0-2.39-.7,1.083,1.083,0,0,0-.767.285q-.292-.056-.586-.1a17.827,17.827,0,0,1-7.9,9.934Z" transform="translate(0 0)" fill="#fff"/></g><g transform="translate(274.128 79.781)"><path d="M83.471,82.386a.689.689,0,0,0-.164-.012.707.707,0,0,0-.273.071.714.714,0,0,0-.346.925l0,.007,1.635,3.951a8.347,8.347,0,0,0,3.374-4.238l-4.214-.712Zm-6.557.56a.713.713,0,0,0-.684-.555.7.7,0,0,0-.141.012l-.007-.009L71.9,83.1a8.379,8.379,0,0,0,3.363,4.208L76.887,83.4l-.013-.015A.706.706,0,0,0,76.914,82.946Zm3.5,1.534a.713.713,0,0,0-1.257,0h0L77.1,88.2a8.368,8.368,0,0,0,4.567.235q.421-.1.823-.23L80.428,84.48Zm6.5-8.629L83.755,78.68l0,.009a.714.714,0,0,0,.28,1.226l0,.017,4.094,1.179a8.491,8.491,0,0,0-1.219-5.26Zm-5.872.317a.714.714,0,0,0,1.134.545l.012.005,3.459-2.452A8.409,8.409,0,0,0,80.8,71.927l.24,4.239Zm-3.663.56a.713.713,0,0,0,1.132-.547l.018-.008.24-4.245a8.566,8.566,0,0,0-.863.149,8.335,8.335,0,0,0-4.015,2.188l3.481,2.468Zm-1.856,3.208a.713.713,0,0,0,.28-1.226l0-.017L72.631,75.85a8.333,8.333,0,0,0-1.183,5.276l4.074-1.175Zm3.087,1.249,1.172.564,1.169-.562.29-1.262-.809-1.012h-1.3l-.811,1.01Z" transform="translate(-46.595 -47.285)" fill="#fff"/><path d="M52.572,36.386,49.231,21.875a2.608,2.608,0,0,0-1.4-1.74L34.309,13.678a2.606,2.606,0,0,0-2.245,0l-13.52,6.46a2.608,2.608,0,0,0-1.4,1.74L13.81,36.389a2.553,2.553,0,0,0,0,1.114,2.59,2.59,0,0,0,.094.329,2.512,2.512,0,0,0,.258.523c.046.07.094.138.147.2l9.359,11.636c.041.051.086.1.131.144a2.574,2.574,0,0,0,.494.409,2.67,2.67,0,0,0,.74.322,2.55,2.55,0,0,0,.658.091h.146l14.862,0a2.493,2.493,0,0,0,.27-.016,2.583,2.583,0,0,0,.381-.072,2.66,2.66,0,0,0,.265-.085c.068-.026.135-.052.2-.083a2.674,2.674,0,0,0,.284-.158,2.551,2.551,0,0,0,.621-.549L43,49.838l9.07-11.283a2.528,2.528,0,0,0,.4-.726,2.62,2.62,0,0,0,.1-.331,2.547,2.547,0,0,0,0-1.114ZM38.545,42.03a2.783,2.783,0,0,0,.135.327.635.635,0,0,0-.063.477,7.55,7.55,0,0,0,.718,1.285,6.723,6.723,0,0,1,.434.645c.033.06.075.154.106.218a.813.813,0,1,1-1.463.692c-.031-.063-.074-.148-.1-.207a6.764,6.764,0,0,1-.235-.742,7.537,7.537,0,0,0-.555-1.361.64.64,0,0,0-.413-.251c-.026-.045-.122-.22-.173-.311a10.473,10.473,0,0,1-7.469-.019l-.183.332a.658.658,0,0,0-.349.17,5.66,5.66,0,0,0-.627,1.454,6.692,6.692,0,0,1-.234.742c-.026.059-.069.143-.1.206v0A.813.813,0,1,1,26.512,45c.03-.064.071-.157.1-.218a6.746,6.746,0,0,1,.434-.647,7.906,7.906,0,0,0,.733-1.317.8.8,0,0,0-.072-.458L27.857,42a10.532,10.532,0,0,1-4.667-5.827l-.353.06a.9.9,0,0,0-.466-.164,7.579,7.579,0,0,0-1.411.415,6.825,6.825,0,0,1-.726.278c-.058.016-.143.032-.21.047l-.015.006H20a.812.812,0,1,1-.359-1.577l.012,0,.007,0c.068-.016.154-.038.216-.05a6.765,6.765,0,0,1,.777-.063,7.553,7.553,0,0,0,1.45-.238,1.119,1.119,0,0,0,.348-.351l.339-.1a10.473,10.473,0,0,1,1.652-7.3l-.259-.231a.9.9,0,0,0-.163-.467,7.549,7.549,0,0,0-1.2-.846,6.759,6.759,0,0,1-.671-.392c-.049-.037-.114-.092-.168-.135l-.012-.008a.858.858,0,0,1-.2-1.193.78.78,0,0,1,.645-.285.965.965,0,0,1,.564.213c.055.043.13.1.179.143a6.76,6.76,0,0,1,.533.566,7.552,7.552,0,0,0,1.091.986.639.639,0,0,0,.481.047q.145.105.292.207a10.41,10.41,0,0,1,5.288-3.021,10.557,10.557,0,0,1,1.463-.225l.019-.342a.882.882,0,0,0,.263-.419,7.57,7.57,0,0,0-.09-1.468,6.8,6.8,0,0,1-.11-.77c0-.059,0-.14,0-.207,0-.008,0-.015,0-.023a.813.813,0,1,1,1.619,0c0,.071,0,.165,0,.23a6.733,6.733,0,0,1-.111.77,7.581,7.581,0,0,0-.092,1.468.641.641,0,0,0,.264.4c0,.058.012.254.02.361A10.606,10.606,0,0,1,40.8,25.744l.308-.22a.9.9,0,0,0,.491-.053,7.581,7.581,0,0,0,1.091-.987,6.712,6.712,0,0,1,.534-.566c.05-.043.125-.1.179-.143a.813.813,0,1,1,1.008,1.265c-.054.044-.126.105-.178.144a6.729,6.729,0,0,1-.673.392,7.573,7.573,0,0,0-1.2.846.64.64,0,0,0-.152.458l-.287.258A10.516,10.516,0,0,1,43.6,34.421l.327.1a.91.91,0,0,0,.349.351,7.568,7.568,0,0,0,1.451.239,6.835,6.835,0,0,1,.776.062c.068.012.166.04.236.056a.812.812,0,1,1-.36,1.577l-.012,0-.016-.006c-.067-.015-.151-.029-.209-.044a6.739,6.739,0,0,1-.726-.28,7.57,7.57,0,0,0-1.412-.415.64.64,0,0,0-.453.168q-.173-.033-.346-.061a10.531,10.531,0,0,1-4.665,5.869Z" transform="translate(0 0)" fill="#fff"/></g></g></svg>